<?xml version="1.0" encoding="utf-8"?>
<!-- Generator: Adobe Illustrator 20.0.0, SVG Export Plug-In . SVG Version: 6.00 Build 0)  -->
<svg version="1.1" id="Layer_1" xmlns="http://www.w3.org/2000/svg" xmlns:xlink="http://www.w3.org/1999/xlink" x="0px" y="0px"
	 viewBox="0 0 595.5 172.4" style="enable-background:new 0 0 595.5 172.4;" xml:space="preserve">
<style type="text/css">
	.st0{fill:none;}
	.st1{fill:#231F20;}
	.st2{enable-background:new    ;}
	.st3{fill:url(#SVGID_1_);}
	.st4{font-family:'NexaBold';}
	.st5{font-size:40.4533px;}
	.st6{fill:url(#SVGID_2_);}
	.st7{fill:#EC6629;}
	.st8{fill:#2A65AF;}
	.st9{fill:#E4168D;}
</style>
<pattern  y="172.4" width="33.3" height="33.3" patternUnits="userSpaceOnUse" id="New_Pattern_Swatch_1" viewBox="0 -33.3 33.3 33.3" style="overflow:visible;">
	<g>
		<rect y="-33.3" class="st0" width="33.3" height="33.3"/>
		<g>
			<rect x="0" y="-33.3" class="st1" width="33.3" height="33.3"/>
		</g>
	</g>
</pattern>
<g>
	<g>
		<g>
			<text transform="matrix(1 0 0 1 141.8594 72.8842)" class="st2">			<pattern  id="SVGID_1_" xlink:href="#New_Pattern_Swatch_1" patternTransform="matrix(1 0 0 1 -33.9042 71.8596)"  class="st2">
			</pattern>
<tspan x="0" y="0" class="st3 st4 st5">S</tspan>			<pattern  id="SVGID_2_" xlink:href="#New_Pattern_Swatch_1" patternTransform="matrix(1 0 0 1 -33.9042 71.8596)"  class="st2">
			</pattern>
<tspan x="25.9" y="0" class="st6 st4 st5">ingularityU</tspan></text>
		</g>
	</g>
	<g>
		<g>
			<g>
				<path class="st7" d="M62.4,113.8c-0.3,1.6,0.7,3.1,2.2,3.4c1.6,0.3,3.1-0.7,3.4-2.2c0.3-1.6-0.7-3.1-2.2-3.4
					C64.2,111.2,62.7,112.2,62.4,113.8"/>
				<path class="st7" d="M71,103.1c-2.1-0.4-4.1,0.9-4.6,3c-0.4,2.1,0.9,4.1,3,4.6c2.1,0.4,4.1-0.9,4.6-3
					C74.4,105.6,73.1,103.5,71,103.1"/>
				<path class="st7" d="M58.5,118.5c-0.2,0.9,0.4,1.7,1.3,1.9c0.9,0.2,1.7-0.4,1.9-1.3c0.2-0.9-0.4-1.7-1.3-1.9
					C59.5,117.1,58.7,117.6,58.5,118.5"/>
				<path class="st7" d="M54.5,121.5c-0.1,0.5,0.2,1,0.7,1.1c0.5,0.1,1-0.2,1.1-0.7c0.1-0.5-0.2-1-0.7-1.1
					C55.2,120.6,54.7,120.9,54.5,121.5"/>
			</g>
			<g>
				<g>
					<path class="st8" d="M39.1,104.9c-0.2-3.1,2.2-5.8,5.3-6c3.1-0.2,5.8,2.2,6,5.3c0.2,3.1-2.2,5.8-5.3,6
						C42,110.4,39.3,108.1,39.1,104.9"/>
					<path class="st8" d="M52.5,102.8c-0.1-2.1,1.5-4,3.6-4.1c2.1-0.1,4,1.5,4.1,3.6c0.1,2.1-1.5,4-3.6,4.1
						C54.5,106.6,52.6,104.9,52.5,102.8"/>
					<path class="st8" d="M64.4,95.5c1.6-0.1,3,1.1,3.1,2.7c0.1,1.6-1.1,3-2.7,3.1c-1.6,0.1-3-1.1-3.1-2.7
						C61.6,97,62.8,95.6,64.4,95.5"/>
				</g>
			</g>
			<g>
				<path class="st8" d="M69.8,92.3c0.8-0.1,1.6,0.6,1.6,1.4c0.1,0.8-0.6,1.6-1.4,1.6c-0.8,0.1-1.6-0.6-1.6-1.4
					C68.3,93.1,69,92.3,69.8,92.3"/>
			</g>
		</g>
		<g>
			<g>
				<path class="st7" d="M45.7,87.4c-1.5,0.5-2.3,2.1-1.8,3.6c0.5,1.5,2.1,2.3,3.6,1.8c1.5-0.5,2.3-2.1,1.8-3.6
					C48.8,87.7,47.2,86.9,45.7,87.4"/>
				<path class="st7" d="M59.2,89.5c-0.7-2-2.9-3.1-4.9-2.5c-2,0.7-3.1,2.9-2.5,4.9c0.7,2,2.9,3.1,4.9,2.5
					C58.8,93.7,59.9,91.5,59.2,89.5"/>
				<path class="st7" d="M39.6,86.4c-0.9,0.3-1.3,1.2-1,2.1c0.3,0.9,1.2,1.3,2.1,1c0.9-0.3,1.3-1.2,1-2.1
					C41.4,86.6,40.5,86.1,39.6,86.4"/>
				<path class="st7" d="M35.1,84.5c-0.5,0.2-0.8,0.7-0.6,1.2c0.2,0.5,0.7,0.8,1.2,0.6c0.5-0.2,0.8-0.7,0.6-1.2
					C36.2,84.6,35.6,84.3,35.1,84.5"/>
			</g>
			<g>
				<g>
					<path class="st8" d="M41.7,62.9c2.6-1.7,6.1-1,7.8,1.6c1.7,2.6,1,6.1-1.6,7.8c-2.6,1.7-6.1,1-7.8-1.6
						C38.4,68.1,39.1,64.6,41.7,62.9"/>
					<path class="st8" d="M50.3,73.4c1.8-1.2,4.2-0.7,5.4,1.1c1.2,1.8,0.7,4.2-1.1,5.4c-1.8,1.2-4.2,0.7-5.4-1.1
						C48,76.9,48.5,74.5,50.3,73.4"/>
					<path class="st8" d="M62.5,80.1c0.9,1.3,0.5,3.1-0.8,4c-1.3,0.9-3.1,0.5-4-0.8c-0.9-1.3-0.5-3.1,0.8-4
						C59.9,78.4,61.6,78.7,62.5,80.1"/>
				</g>
			</g>
			<g>
				<path class="st8" d="M68,83.1c0.5,0.7,0.3,1.7-0.4,2.1c-0.7,0.5-1.7,0.3-2.1-0.4c-0.5-0.7-0.3-1.7,0.4-2.1
					C66.6,82.2,67.6,82.4,68,83.1"/>
			</g>
		</g>
		<g>
			<g>
				<path class="st7" d="M60.2,59.8c-1.2-1.1-3-1-4.1,0.2c-1.1,1.2-1,3,0.2,4.1c1.2,1.1,3,1,4.1-0.2C61.5,62.7,61.4,60.9,60.2,59.8"
					/>
				<path class="st7" d="M65.1,72.7c1.4-1.6,1.3-4-0.3-5.5c-1.6-1.4-4-1.3-5.5,0.3c-1.4,1.6-1.3,4,0.3,5.5
					C61.3,74.4,63.7,74.2,65.1,72.7"/>
				<path class="st7" d="M58,54.1c-0.7-0.6-1.7-0.5-2.3,0.1c-0.6,0.7-0.5,1.7,0.1,2.3c0.7,0.6,1.7,0.5,2.3-0.1
					C58.8,55.8,58.7,54.7,58,54.1"/>
				<path class="st7" d="M57.5,49.2c-0.4-0.4-1-0.3-1.4,0.1c-0.4,0.4-0.3,1,0.1,1.4c0.4,0.4,1,0.3,1.4-0.1
					C57.9,50.2,57.9,49.6,57.5,49.2"/>
			</g>
			<g>
				<g>
					<path class="st8" d="M79.5,44.2c2.8,1.4,3.9,4.8,2.5,7.6c-1.4,2.8-4.8,3.9-7.6,2.5c-2.8-1.4-3.9-4.8-2.5-7.6
						C73.3,43.9,76.7,42.8,79.5,44.2"/>
					<path class="st8" d="M74.6,56.8c1.9,1,2.7,3.3,1.7,5.2c-1,1.9-3.3,2.7-5.2,1.7c-1.9-1-2.7-3.3-1.7-5.2
						C70.4,56.6,72.7,55.8,74.6,56.8"/>
					<path class="st8" d="M75,70.8c-0.7,1.4-2.4,2-3.9,1.3c-1.4-0.7-2-2.4-1.3-3.9c0.7-1.4,2.4-2,3.9-1.3
						C75.1,67.6,75.7,69.3,75,70.8"/>
				</g>
				<g>
					<path class="st8" d="M90.5,30.9c3.6,1.8,5,6.2,3.3,9.8c-1.8,3.6-6.2,5-9.8,3.3c-3.6-1.8-5-6.2-3.3-9.8
						C82.5,30.5,86.9,29.1,90.5,30.9"/>
				</g>
			</g>
			<g>
				<path class="st8" d="M75.1,77c-0.4,0.8-1.3,1.1-2,0.7c-0.8-0.4-1.1-1.3-0.7-2c0.4-0.8,1.3-1.1,2-0.7
					C75.2,75.4,75.5,76.3,75.1,77"/>
			</g>
		</g>
		<g>
			<g>
				<path class="st7" d="M91.3,58.6c0.3-1.6-0.7-3.1-2.2-3.4c-1.6-0.3-3.1,0.7-3.4,2.2c-0.3,1.6,0.7,3.1,2.2,3.4
					C89.5,61.1,91,60.1,91.3,58.6"/>
				<path class="st7" d="M82.7,69.3c2.1,0.4,4.1-0.9,4.6-3c0.4-2.1-0.9-4.1-3-4.6c-2.1-0.4-4.1,0.9-4.6,3
					C79.3,66.8,80.6,68.8,82.7,69.3"/>
				<path class="st7" d="M95.2,53.9c0.2-0.9-0.4-1.7-1.3-1.9c-0.9-0.2-1.7,0.4-1.9,1.3c-0.2,0.9,0.4,1.7,1.3,1.9
					C94.1,55.3,95,54.8,95.2,53.9"/>
				<path class="st7" d="M99.1,50.9c0.1-0.5-0.2-1-0.7-1.1c-0.5-0.1-1,0.2-1.1,0.7c-0.1,0.5,0.2,1,0.7,1.1
					C98.5,51.8,99,51.4,99.1,50.9"/>
			</g>
			<g>
				<g>
					<path class="st8" d="M114.5,67.5c0.2,3.1-2.2,5.8-5.3,6c-3.1,0.2-5.8-2.2-6-5.3c-0.2-3.1,2.2-5.8,5.3-6
						C111.7,62,114.3,64.3,114.5,67.5"/>
					<path class="st8" d="M101.2,69.6c0.1,2.1-1.5,4-3.6,4.1c-2.1,0.1-4-1.5-4.1-3.6c-0.1-2.1,1.5-4,3.6-4.1
						C99.2,65.8,101,67.5,101.2,69.6"/>
					<path class="st8" d="M89.2,76.8c-1.6,0.1-3-1.1-3.1-2.7c-0.1-1.6,1.1-3,2.7-3.1c1.6-0.1,3,1.1,3.1,2.7
						C92,75.4,90.8,76.7,89.2,76.8"/>
				</g>
			</g>
			<g>
				<path class="st8" d="M83.9,80.1c-0.8,0.1-1.6-0.6-1.6-1.4c-0.1-0.8,0.6-1.6,1.4-1.6c0.8-0.1,1.6,0.6,1.6,1.4
					C85.4,79.3,84.7,80.1,83.9,80.1"/>
			</g>
		</g>
		<ellipse transform="matrix(0.7974 -0.6034 0.6034 0.7974 -36.4459 63.8091)" class="st9" cx="76.8" cy="86.2" rx="5.7" ry="5.7"/>
		<g>
			<path class="st7" d="M93.5,112.5c1.2,1.1,3,1,4.1-0.2c1.1-1.2,1-3-0.2-4.1c-1.2-1.1-3-1-4.1,0.2
				C92.2,109.6,92.3,111.5,93.5,112.5"/>
			<path class="st7" d="M88.5,99.7c-1.4,1.6-1.3,4,0.3,5.5c1.6,1.4,4,1.3,5.5-0.3c1.4-1.6,1.3-4-0.3-5.5C92.4,98,90,98.1,88.5,99.7"
				/>
			<path class="st7" d="M95.6,118.3c0.7,0.6,1.7,0.5,2.3-0.1c0.6-0.7,0.5-1.7-0.1-2.3c-0.7-0.6-1.7-0.5-2.3,0.1
				C94.9,116.6,95,117.7,95.6,118.3"/>
			<path class="st7" d="M96.2,123.1c0.4,0.4,1,0.3,1.4-0.1c0.4-0.4,0.3-1-0.1-1.4c-0.4-0.4-1-0.3-1.4,0.1
				C95.8,122.2,95.8,122.8,96.2,123.1"/>
		</g>
		<g>
			<g>
				<path class="st8" d="M74.2,128.2c-2.8-1.4-3.9-4.8-2.5-7.6c1.4-2.8,4.8-3.9,7.6-2.5c2.8,1.4,3.9,4.8,2.5,7.6
					C80.4,128.5,77,129.6,74.2,128.2"/>
				<path class="st8" d="M79,115.6c-1.9-1-2.7-3.3-1.7-5.2c1-1.9,3.3-2.7,5.2-1.7c1.9,1,2.7,3.3,1.7,5.2
					C83.3,115.8,80.9,116.5,79,115.6"/>
				<path class="st8" d="M78.7,101.6c0.7-1.4,2.4-2,3.9-1.3c1.4,0.7,2,2.4,1.3,3.9c-0.7,1.4-2.4,2-3.9,1.3
					C78.6,104.8,78,103,78.7,101.6"/>
			</g>
			<g>
				<path class="st8" d="M63.2,141.5c-3.6-1.8-5-6.2-3.3-9.8c1.8-3.6,6.2-5,9.8-3.3c3.6,1.8,5,6.2,3.3,9.8
					C71.1,141.9,66.8,143.3,63.2,141.5"/>
			</g>
		</g>
		<g>
			<path class="st7" d="M108,84.9c1.5-0.5,2.3-2.1,1.8-3.6c-0.5-1.5-2.1-2.3-3.6-1.8c-1.5,0.5-2.3,2.1-1.8,3.6
				C104.8,84.6,106.5,85.4,108,84.9"/>
			<path class="st7" d="M94.4,82.8c0.7,2,2.9,3.1,4.9,2.5c2-0.7,3.1-2.9,2.5-4.9c-0.7-2-2.9-3.1-4.9-2.5
				C94.9,78.6,93.7,80.8,94.4,82.8"/>
			<path class="st7" d="M114,86c0.9-0.3,1.3-1.2,1-2.1c-0.3-0.9-1.2-1.3-2.1-1c-0.9,0.3-1.3,1.2-1,2.1C112.2,85.8,113.2,86.2,114,86
				"/>
			<path class="st7" d="M118.5,87.9c0.5-0.2,0.8-0.7,0.6-1.2c-0.2-0.5-0.7-0.8-1.2-0.6c-0.5,0.2-0.8,0.7-0.6,1.2
				C117.5,87.8,118,88,118.5,87.9"/>
		</g>
		<g>
			<path class="st8" d="M78.6,95.3c0.4-0.8,1.3-1.1,2-0.7c0.8,0.4,1.1,1.3,0.7,2c-0.4,0.8-1.3,1.1-2,0.7
				C78.5,97,78.2,96.1,78.6,95.3"/>
		</g>
		<g>
			<g>
				<path class="st8" d="M111.9,109.5c-2.6,1.7-6.1,1-7.8-1.6c-1.7-2.6-1-6.1,1.6-7.8c2.6-1.7,6.1-1,7.8,1.6
					C115.2,104.3,114.5,107.8,111.9,109.5"/>
				<path class="st8" d="M103.4,99c-1.8,1.2-4.2,0.7-5.4-1.1c-1.2-1.8-0.7-4.2,1.1-5.4c1.8-1.2,4.2-0.7,5.4,1.1
					C105.7,95.4,105.2,97.8,103.4,99"/>
				<path class="st8" d="M91.1,92.3c-0.9-1.3-0.5-3.1,0.8-4c1.3-0.9,3.1-0.5,4,0.8c0.9,1.3,0.5,3.1-0.8,4C93.8,94,92,93.6,91.1,92.3
					"/>
			</g>
		</g>
		<g>
			<path class="st8" d="M85.6,89.3c-0.5-0.7-0.3-1.7,0.4-2.1c0.7-0.5,1.7-0.3,2.1,0.4c0.5,0.7,0.3,1.7-0.4,2.1
				C87,90.2,86.1,90,85.6,89.3"/>
		</g>
	</g>
</g>
</svg>
