<?xml version="1.0" encoding="utf-8"?>
<!-- Generator: Adobe Illustrator 20.0.0, SVG Export Plug-In . SVG Version: 6.00 Build 0)  -->
<svg version="1.1" id="Layer_1" xmlns="http://www.w3.org/2000/svg" xmlns:xlink="http://www.w3.org/1999/xlink" x="0px" y="0px"
	 viewBox="0 0 424.9 206.9" style="enable-background:new 0 0 424.9 206.9;" xml:space="preserve">
<style type="text/css">
	.st0{enable-background:new    ;}
	.st1{font-family:'NexaBold';}
	.st2{font-size:38px;}
	.st3{fill:#EC6629;}
	.st4{fill:#2A65AF;}
	.st5{fill:#E4168D;}
</style>
<g>
	<g>
		<g>
			<g>
				<g>
					<text transform="matrix(1 0 0 1 167.6754 70.8229)" class="st0"><tspan x="0" y="0" class="st1 st2">S</tspan><tspan x="24.4" y="0" class="st1 st2">ingularityU</tspan></text>
				</g>
			</g>
		</g>
	</g>
	<g>
		<g>
			<g>
				<path class="st3" d="M70.7,139.3c-0.4,2,0.9,4,2.9,4.4c2,0.4,4-0.9,4.4-2.9c0.4-2-0.9-4-2.9-4.4C73.1,136,71.1,137.3,70.7,139.3
					"/>
				<path class="st3" d="M81.9,125.4c-2.7-0.6-5.4,1.2-5.9,3.9c-0.6,2.7,1.2,5.4,3.9,5.9c2.7,0.6,5.4-1.2,5.9-3.9
					C86.3,128.6,84.6,126,81.9,125.4"/>
				<path class="st3" d="M65.6,145.4c-0.2,1.1,0.5,2.3,1.6,2.5c1.1,0.2,2.3-0.5,2.5-1.6c0.2-1.1-0.5-2.3-1.6-2.5
					C67,143.5,65.9,144.3,65.6,145.4"/>
				<path class="st3" d="M60.5,149.2c-0.1,0.7,0.3,1.3,1,1.5c0.7,0.1,1.3-0.3,1.5-1c0.1-0.7-0.3-1.3-1-1.5
					C61.3,148.1,60.7,148.6,60.5,149.2"/>
			</g>
			<g>
				<g>
					<path class="st4" d="M40.5,127.8c-0.2-4.1,2.8-7.5,6.9-7.8c4.1-0.2,7.5,2.8,7.8,6.9c0.2,4.1-2.8,7.5-6.9,7.8
						C44.3,134.9,40.8,131.8,40.5,127.8"/>
					<path class="st4" d="M57.9,125c-0.2-2.8,1.9-5.2,4.7-5.3c2.8-0.2,5.2,1.9,5.3,4.7c0.2,2.8-1.9,5.2-4.7,5.3
						C60.4,129.9,58.1,127.8,57.9,125"/>
					<path class="st4" d="M73.4,115.6c2.1-0.1,3.8,1.4,4,3.5c0.1,2.1-1.4,3.8-3.5,4c-2.1,0.1-3.8-1.4-4-3.5
						C69.8,117.5,71.3,115.7,73.4,115.6"/>
				</g>
			</g>
			<g>
				<path class="st4" d="M80.4,111.3c1.1-0.1,2,0.8,2.1,1.9c0.1,1.1-0.8,2-1.9,2.1c-1.1,0.1-2-0.8-2.1-1.9
					C78.4,112.3,79.3,111.4,80.4,111.3"/>
			</g>
		</g>
		<g>
			<g>
				<path class="st3" d="M49,105c-2,0.6-3,2.8-2.4,4.7c0.6,2,2.8,3,4.7,2.4c2-0.6,3-2.8,2.4-4.7C53.1,105.4,51,104.4,49,105"/>
				<path class="st3" d="M66.6,107.7c-0.9-2.6-3.7-4.1-6.3-3.2c-2.6,0.9-4.1,3.7-3.2,6.3c0.9,2.6,3.7,4.1,6.3,3.2
					C66.1,113.2,67.5,110.4,66.6,107.7"/>
				<path class="st3" d="M41.2,103.7c-1.1,0.4-1.7,1.6-1.4,2.7c0.4,1.1,1.6,1.7,2.7,1.4c1.1-0.4,1.7-1.6,1.4-2.7
					C43.5,103.9,42.3,103.3,41.2,103.7"/>
				<path class="st3" d="M35.3,101.2c-0.7,0.2-1,0.9-0.8,1.6c0.2,0.7,0.9,1,1.6,0.8c0.7-0.2,1-0.9,0.8-1.6
					C36.7,101.3,36,101,35.3,101.2"/>
			</g>
			<g>
				<g>
					<path class="st4" d="M43.9,73.1c3.4-2.2,8-1.3,10.2,2.1c2.2,3.4,1.3,8-2.1,10.2c-3.4,2.2-8,1.3-10.2-2.1
						C39.6,79.9,40.5,75.4,43.9,73.1"/>
					<path class="st4" d="M55,86.8c2.3-1.5,5.4-0.9,7,1.4c1.5,2.3,0.9,5.4-1.4,7c-2.3,1.5-5.4,0.9-7-1.4C52,91.4,52.7,88.3,55,86.8"
						/>
					<path class="st4" d="M70.9,95.5c1.1,1.7,0.7,4-1.1,5.2c-1.7,1.1-4,0.7-5.2-1.1c-1.1-1.7-0.7-4,1.1-5.2
						C67.4,93.3,69.8,93.8,70.9,95.5"/>
				</g>
			</g>
			<g>
				<path class="st4" d="M78.1,99.4c0.6,0.9,0.4,2.1-0.6,2.7c-0.9,0.6-2.1,0.4-2.7-0.6c-0.6-0.9-0.4-2.1,0.6-2.7
					C76.2,98.2,77.5,98.5,78.1,99.4"/>
			</g>
		</g>
		<g>
			<g>
				<path class="st3" d="M67.9,69.2c-1.5-1.4-3.9-1.2-5.3,0.3c-1.4,1.5-1.2,3.9,0.3,5.3c1.5,1.4,3.9,1.2,5.3-0.3
					C69.5,73,69.4,70.6,67.9,69.2"/>
				<path class="st3" d="M74.3,85.8c1.9-2.1,1.7-5.2-0.4-7.1c-2.1-1.9-5.2-1.7-7.1,0.4c-1.9,2.1-1.7,5.2,0.4,7.1
					C69.3,88.1,72.5,87.9,74.3,85.8"/>
				<path class="st3" d="M65.1,61.8c-0.9-0.8-2.2-0.7-3,0.2c-0.8,0.9-0.7,2.2,0.2,3c0.9,0.8,2.2,0.7,3-0.2
					C66,63.9,66,62.6,65.1,61.8"/>
				<path class="st3" d="M64.3,55.4C63.8,55,63,55,62.6,55.5c-0.5,0.5-0.4,1.3,0.1,1.8c0.5,0.5,1.3,0.4,1.8-0.1
					C64.9,56.7,64.8,55.9,64.3,55.4"/>
			</g>
			<g>
				<g>
					<path class="st4" d="M92.9,48.8c3.6,1.8,5.1,6.2,3.3,9.9c-1.8,3.6-6.2,5.1-9.9,3.3c-3.6-1.8-5.1-6.2-3.3-9.9
						C84.9,48.5,89.3,47,92.9,48.8"/>
					<path class="st4" d="M86.6,65.3c2.5,1.2,3.5,4.3,2.3,6.7c-1.2,2.5-4.3,3.5-6.7,2.3c-2.5-1.2-3.5-4.3-2.3-6.7
						C81.1,65,84.2,64,86.6,65.3"/>
					<path class="st4" d="M87.1,83.4c-0.9,1.8-3.2,2.6-5,1.7c-1.9-0.9-2.6-3.2-1.7-5c0.9-1.8,3.2-2.6,5-1.7
						C87.2,79.3,88,81.6,87.1,83.4"/>
				</g>
				<g>
					<path class="st4" d="M107.2,31.6c4.7,2.3,6.6,8,4.2,12.7c-2.3,4.7-8,6.6-12.7,4.2c-4.7-2.3-6.6-8-4.2-12.7
						C96.9,31.1,102.6,29.2,107.2,31.6"/>
				</g>
			</g>
			<g>
				<path class="st4" d="M87.2,91.6c-0.5,1-1.7,1.4-2.7,0.9c-1-0.5-1.4-1.7-0.9-2.7c0.5-1,1.7-1.4,2.7-0.9
					C87.3,89.4,87.7,90.6,87.2,91.6"/>
			</g>
		</g>
		<g>
			<g>
				<path class="st3" d="M108.3,67.6c0.4-2-0.9-4-2.9-4.4c-2-0.4-4,0.9-4.4,2.9c-0.4,2,0.9,4,2.9,4.4
					C105.9,70.9,107.9,69.6,108.3,67.6"/>
				<path class="st3" d="M97.1,81.5c2.7,0.6,5.4-1.2,5.9-3.9c0.6-2.7-1.2-5.4-3.9-5.9c-2.7-0.6-5.4,1.2-5.9,3.9
					C92.6,78.2,94.4,80.9,97.1,81.5"/>
				<path class="st3" d="M113.3,61.5c0.2-1.1-0.5-2.3-1.6-2.5c-1.1-0.2-2.3,0.5-2.5,1.6c-0.2,1.1,0.5,2.3,1.6,2.5
					C112,63.3,113.1,62.6,113.3,61.5"/>
				<path class="st3" d="M118.4,57.6c0.1-0.7-0.3-1.3-1-1.5c-0.7-0.1-1.3,0.3-1.5,1c-0.1,0.7,0.3,1.3,1,1.5
					C117.6,58.7,118.3,58.3,118.4,57.6"/>
			</g>
			<g>
				<g>
					<path class="st4" d="M138.5,79.1c0.2,4.1-2.8,7.5-6.9,7.8c-4.1,0.2-7.5-2.8-7.8-6.9c-0.2-4.1,2.8-7.5,6.9-7.8
						C134.7,71.9,138.2,75,138.5,79.1"/>
					<path class="st4" d="M121.1,81.9c0.2,2.8-1.9,5.2-4.7,5.3c-2.8,0.2-5.2-1.9-5.3-4.7c-0.2-2.8,1.9-5.2,4.7-5.3
						C118.6,77,120.9,79.1,121.1,81.9"/>
					<path class="st4" d="M105.6,91.3c-2.1,0.1-3.8-1.4-4-3.5c-0.1-2.1,1.4-3.8,3.5-4c2.1-0.1,3.8,1.4,4,3.5
						C109.2,89.4,107.7,91.2,105.6,91.3"/>
				</g>
			</g>
			<g>
				<path class="st4" d="M98.6,95.5c-1.1,0.1-2-0.8-2.1-1.9c-0.1-1.1,0.8-2,1.9-2.1c1.1-0.1,2,0.8,2.1,1.9
					C100.6,94.5,99.7,95.5,98.6,95.5"/>
			</g>
		</g>
		
			<ellipse transform="matrix(0.7974 -0.6034 0.6034 0.7974 -44.2834 74.9369)" class="st5" cx="89.5" cy="103.4" rx="7.4" ry="7.4"/>
		<g>
			<path class="st3" d="M111.1,137.6c1.5,1.4,3.9,1.2,5.3-0.3c1.4-1.5,1.2-3.9-0.3-5.3c-1.5-1.4-3.9-1.2-5.3,0.3
				C109.5,133.9,109.6,136.3,111.1,137.6"/>
			<path class="st3" d="M104.7,121c-1.9,2.1-1.7,5.2,0.4,7.1c2.1,1.9,5.2,1.7,7.1-0.4c1.9-2.1,1.7-5.2-0.4-7.1
				C109.7,118.8,106.5,118.9,104.7,121"/>
			<path class="st3" d="M113.9,145.1c0.9,0.8,2.2,0.7,3-0.2c0.8-0.9,0.7-2.2-0.2-3s-2.2-0.7-3,0.2C113,143,113,144.3,113.9,145.1"/>
			<path class="st3" d="M114.7,151.4c0.5,0.5,1.3,0.4,1.8-0.1c0.5-0.5,0.4-1.3-0.1-1.8c-0.5-0.5-1.3-0.4-1.8,0.1
				C114.1,150.2,114.2,150.9,114.7,151.4"/>
		</g>
		<g>
			<g>
				<path class="st4" d="M86,158c-3.6-1.8-5.1-6.2-3.3-9.9c1.8-3.6,6.2-5.1,9.9-3.3c3.6,1.8,5.1,6.2,3.3,9.9
					C94.1,158.4,89.7,159.8,86,158"/>
				<path class="st4" d="M92.3,141.6c-2.5-1.2-3.5-4.3-2.3-6.7c1.2-2.5,4.3-3.5,6.7-2.3c2.5,1.2,3.5,4.3,2.3,6.7
					C97.8,141.8,94.8,142.8,92.3,141.6"/>
				<path class="st4" d="M91.9,123.5c0.9-1.8,3.2-2.6,5-1.7c1.9,0.9,2.6,3.2,1.7,5c-0.9,1.8-3.2,2.6-5,1.7
					C91.7,127.6,91,125.3,91.9,123.5"/>
			</g>
			<g>
				<path class="st4" d="M71.7,175.3c-4.7-2.3-6.6-8-4.2-12.7c2.3-4.7,8-6.6,12.7-4.2c4.7,2.3,6.6,8,4.2,12.7
					C82.1,175.7,76.4,177.6,71.7,175.3"/>
			</g>
		</g>
		<g>
			<path class="st3" d="M129.9,101.8c2-0.6,3-2.8,2.4-4.7c-0.6-2-2.8-3-4.7-2.4c-2,0.6-3,2.8-2.4,4.7
				C125.9,101.4,128,102.4,129.9,101.8"/>
			<path class="st3" d="M112.3,99.1c0.9,2.6,3.7,4.1,6.3,3.2c2.6-0.9,4.1-3.7,3.2-6.3c-0.9-2.6-3.7-4.1-6.3-3.2
				C112.9,93.6,111.5,96.4,112.3,99.1"/>
			<path class="st3" d="M137.8,103.1c1.1-0.4,1.7-1.6,1.4-2.7c-0.4-1.1-1.6-1.7-2.7-1.4c-1.1,0.4-1.7,1.6-1.4,2.7
				C135.5,102.9,136.7,103.5,137.8,103.1"/>
			<path class="st3" d="M143.6,105.6c0.7-0.2,1-0.9,0.8-1.6c-0.2-0.7-0.9-1-1.6-0.8c-0.7,0.2-1,0.9-0.8,1.6
				C142.3,105.5,143,105.8,143.6,105.6"/>
		</g>
		<g>
			<path class="st4" d="M91.7,115.3c0.5-1,1.7-1.4,2.7-0.9c1,0.5,1.4,1.7,0.9,2.7c-0.5,1-1.7,1.4-2.7,0.9
				C91.6,117.5,91.2,116.3,91.7,115.3"/>
		</g>
		<g>
			<g>
				<path class="st4" d="M135.1,133.7c-3.4,2.2-8,1.3-10.2-2.1c-2.2-3.4-1.3-8,2.1-10.2c3.4-2.2,8-1.3,10.2,2.1
					C139.4,126.9,138.5,131.5,135.1,133.7"/>
				<path class="st4" d="M124,120c-2.3,1.5-5.4,0.9-7-1.4c-1.5-2.3-0.9-5.4,1.4-7c2.3-1.5,5.4-0.9,7,1.4
					C126.9,115.4,126.3,118.5,124,120"/>
				<path class="st4" d="M108.1,111.3c-1.1-1.7-0.7-4,1.1-5.2c1.7-1.1,4-0.7,5.2,1.1c1.1,1.7,0.7,4-1.1,5.2
					C111.5,113.5,109.2,113.1,108.1,111.3"/>
			</g>
		</g>
		<g>
			<path class="st4" d="M100.9,107.4c-0.6-0.9-0.4-2.1,0.6-2.7c0.9-0.6,2.1-0.4,2.7,0.6c0.6,0.9,0.4,2.1-0.6,2.7
				C102.8,108.6,101.5,108.3,100.9,107.4"/>
		</g>
	</g>
</g>
</svg>
