<svg id="Layer_1" data-name="Layer 1" xmlns="http://www.w3.org/2000/svg" xmlns:xlink="http://www.w3.org/1999/xlink" viewBox="0 0 350.44 137.9"><defs><style>.cls-1{fill:none;}.cls-2{fill:#fff;}.cls-3{clip-path:url(#clip-path);}.cls-4{fill:#b66f7d;}.cls-5{fill:#ed974c;}.cls-6{fill:#ede251;}.cls-7{fill:#5eb5e2;}</style><clipPath id="clip-path" transform="translate(-34.43 -34.48)"><rect class="cls-1" x="34.47" y="35.58" width="116.17" height="136.8"/></clipPath></defs><title>logo 3 w</title><path class="cls-2" d="M173.21,51.19V50.75c0-5.33,3.93-8.7,10.3-8.7,7.17,0,10.26,3.53,10.26,10.3v1H189.6c0-5.29-1.76-7.57-6.05-7.57h-0.28c-3.41,0-5.77,1.84-5.77,4.69v0.32c0,2.93,1.44,4.65,6.73,5.37,6.81,0.92,9.86,3.53,9.86,8.66v0.44c0,5.69-4,9.06-10.58,9.06-6.93,0-10.62-3.61-10.62-10.46v-0.4h4.17c0,5,2.52,7.17,6.29,7.17h0.32c3.77,0,6.13-2,6.13-5.17V65.1c0-3.17-1.84-4.81-7-5.49C176,58.69,173.21,55.84,173.21,51.19Z" transform="translate(-34.43 -34.48)"/><path class="cls-2" d="M202.71,48.15h-4.57V43.58h4.57v4.57Zm-4.29,4.41h4V73.79h-4V52.56Z" transform="translate(-34.43 -34.48)"/><path class="cls-2" d="M220.74,73.79V59.73c0-2.64-1.4-4.13-4-4.13a5.8,5.8,0,0,0-5.13,2.84V73.79h-4V58.57l-0.28-6h3.45l0.44,2.92a8,8,0,0,1,7-3.41c4.45,0,6.49,3.09,6.49,7V73.79h-4Z" transform="translate(-34.43 -34.48)"/><path class="cls-2" d="M242.54,70.19a7,7,0,0,1-5.85,2.64c-5.73,0-8.05-4.25-8.05-9.9V62c0-5.45,2.32-9.9,8.05-9.9a6.9,6.9,0,0,1,6.25,3.21l0.4-2.72h3.49l-0.28,6V73.79c0,5.13-2.6,8.49-8.86,8.49-6.45,0-8.66-3.53-8.66-7.85V73.79h3.85c0,3.33,1.24,5.13,4.77,5.13s4.89-1.72,4.89-5.25V70.19ZM237.73,55.6c-3.37,0-5,2.56-5,6.37v1c0,4,1.68,6.37,5,6.37a5.62,5.62,0,0,0,4.81-2.84v-8A5.71,5.71,0,0,0,237.73,55.6Z" transform="translate(-34.43 -34.48)"/><path class="cls-2" d="M255.24,52.56V66.62c0,2.64,1.4,4.13,4,4.13a5.93,5.93,0,0,0,5.17-2.84V52.56h4V67.78l0.28,6h-3.49l-0.44-2.93a8,8,0,0,1-7,3.41c-4.41,0-6.49-3.09-6.49-7V52.56h4Z" transform="translate(-34.43 -34.48)"/><path class="cls-2" d="M273.51,41.74h4V73.79h-4V41.74Z" transform="translate(-34.43 -34.48)"/><path class="cls-2" d="M295.27,71.07a8.81,8.81,0,0,1-7.21,3.21c-4.21,0-6.25-2.6-6.25-6v-0.4c0-4.61,3.37-6,7.17-6.57l5.89-.92V60.05c0-3.17-1-4.77-4.25-4.77-3.41,0-4.21,2-4.21,4.29h-3.81V59.21c0-3.37,1.6-7.13,8.13-7.13,6.21,0,8.13,3.17,8.13,8v7.73l0.28,6h-3.49Zm-0.4-2.93V63l-5.29.88c-2.48.4-3.81,1.6-3.81,3.61v0.32c0,1.6,1,3.13,3.57,3.13A6.34,6.34,0,0,0,294.87,68.14Z" transform="translate(-34.43 -34.48)"/><path class="cls-2" d="M313.74,52.12V56H313a5.94,5.94,0,0,0-5.29,2.72V73.79h-4V58.57l-0.28-6h3.45l0.4,2.72a6.83,6.83,0,0,1,5.85-3.21C313.38,52.08,313.66,52.12,313.74,52.12Z" transform="translate(-34.43 -34.48)"/><path class="cls-2" d="M322.24,48.15h-4.57V43.58h4.57v4.57ZM318,52.56h4V73.79h-4V52.56Z" transform="translate(-34.43 -34.48)"/><path class="cls-2" d="M339.39,52.56v3.57h-6.33V66.94c0,3.09,1.32,3.81,3.73,3.81a8.33,8.33,0,0,0,2.2-.32v3.37a7.94,7.94,0,0,1-3.12.48c-4,0-6.81-1.84-6.81-6.89V56.12h-3.33V52.56h3.33v-6h4v6h6.33Z" transform="translate(-34.43 -34.48)"/><path class="cls-2" d="M356.86,52.56h4.33l-7.57,20.32-2.93,8.94H346l3.33-8.94-7.53-20.32h4.33l5.37,16Z" transform="translate(-34.43 -34.48)"/><path class="cls-2" d="M363.91,64.06V42.54h4.17V63.86c0,5,1.92,6.73,6.33,6.73s6.29-1.76,6.29-6.73V42.54h4.17V64.06c0,7.25-3.17,10.22-10.46,10.22S363.91,71.31,363.91,64.06Z" transform="translate(-34.43 -34.48)"/><g id="Layer_1-2" data-name="Layer 1"><path class="cls-2" d="M72.36,36.42a144.1,144.1,0,0,1,21.59-1.94c19.87,0,38.71,5.25,38.71,5.25l7.65,26-0.19,61.36s-16.24,28.4-28.26,36.83L48.07,90.69,54,47.82Z" transform="translate(-34.43 -34.48)"/><g class="cls-3"><path class="cls-4" d="M97.16,120.7c3.15,15.25,3.1,32.49-2.29,51.52-0.77.08-1.56,0.13-2.35,0.16a13.09,13.09,0,0,1-2.27-.13c-5.92-20.88-5.46-39.6-1.35-55.9,2.81,1.45,5.6,2.87,8.27,4.35" transform="translate(-34.43 -34.48)"/></g><g class="cls-3"><path class="cls-5" d="M90.25,172.25c-5.92-20.88-5.46-39.6-1.35-55.9-16.3-8.42-33.53-17.89-33.53-44.69a48.72,48.72,0,0,1,2.58-16.1c-7.83-7-14.55-11.33-17.68-12.81A115.73,115.73,0,0,0,66.62,159.07c10.58,10.36,19.6,12.68,23.63,13.18" transform="translate(-34.43 -34.48)"/></g><path class="cls-6" d="M94.87,172.22c12.75-1.32,22.58-10.11,22.58-23.9,0-14.29-9.08-21.42-20.29-27.62,3.15,15.25,3.1,32.49-2.29,51.52m45.25-45.1c-4.56-22.31-24.18-29.75-40.22-38a133.9,133.9,0,0,1,27.34-33.63,38.31,38.31,0,0,1,1.4,6.91l5.91-1.06q-0.69-5.5-1.18-11a69,69,0,0,1,11.44-7.58,115.41,115.41,0,0,1-4.69,84.37" transform="translate(-34.43 -34.48)"/><path class="cls-7" d="M132.66,39.73q0.24,5.28.72,10.59a68.93,68.93,0,0,1,11.43-7.58h0c-4.08-1.14-8.13-2.13-12.15-3M108.24,36q-2.83-.25-5.65-0.4c-16,.45-24.84,10.28-24.84,26.57,0,14,10.06,20.69,22.16,26.93a133.87,133.87,0,0,1,27.34-33.63c-2.85-9.49-9.4-17.53-19-19.47m-68,6.76a204,204,0,0,1,32.1-6.33A38.5,38.5,0,0,0,57.94,55.56c-7.82-7-14.55-11.34-17.68-12.81" transform="translate(-34.43 -34.48)"/></g></svg>