<?xml version="1.0" encoding="utf-8"?>
<!-- Generator: Adobe Illustrator 20.0.0, SVG Export Plug-In . SVG Version: 6.00 Build 0)  -->
<svg version="1.1" id="Layer_1" xmlns="http://www.w3.org/2000/svg" xmlns:xlink="http://www.w3.org/1999/xlink" x="0px" y="0px"
	 viewBox="0 0 504.5 134" style="enable-background:new 0 0 504.5 134;" xml:space="preserve">
<style type="text/css">
	.st0{fill:none;}
	.st1{fill:#231F20;}
	.st2{enable-background:new    ;}
	.st3{fill:url(#SVGID_1_);}
	.st4{font-family:'NexaBold';}
	.st5{font-size:40.4533px;}
	.st6{fill:url(#SVGID_2_);}
	.st7{fill:#EC6629;}
	.st8{fill:#2A65AF;}
	.st9{fill:#E4168D;}
</style>
<pattern  y="134" width="33.3" height="33.3" patternUnits="userSpaceOnUse" id="New_Pattern_Swatch_1" viewBox="0 -33.3 33.3 33.3" style="overflow:visible;">
	<g>
		<rect y="-33.3" class="st0" width="33.3" height="33.3"/>
		<g>
			<rect x="0" y="-33.3" class="st1" width="33.3" height="33.3"/>
		</g>
	</g>
</pattern>
<g>
	<text transform="matrix(1 0 0 1 104.5351 81.7644)" class="st2">	<pattern  id="SVGID_1_" xlink:href="#New_Pattern_Swatch_1" patternTransform="matrix(1 0 0 1 -14.5709 60.6667)"  class="st2">
	</pattern>
<tspan x="0" y="0" class="st3 st4 st5">S</tspan>	<pattern  id="SVGID_2_" xlink:href="#New_Pattern_Swatch_1" patternTransform="matrix(1 0 0 1 -14.5709 60.6667)"  class="st2">
	</pattern>
<tspan x="25.9" y="0" class="st6 st4 st5">ingularityU</tspan></text>
	<g>
		<g>
			<g>
				<path class="st7" d="M56.2,84.8c-0.2,1,0.4,2,1.4,2.2c1,0.2,2-0.4,2.2-1.4c0.2-1-0.4-2-1.4-2.2C57.4,83.2,56.4,83.8,56.2,84.8"
					/>
				<path class="st7" d="M61.8,77.9c-1.3-0.3-2.7,0.6-3,1.9c-0.3,1.3,0.6,2.7,1.9,3c1.3,0.3,2.7-0.6,3-1.9
					C64,79.5,63.1,78.2,61.8,77.9"/>
				<path class="st7" d="M53.7,87.8c-0.1,0.6,0.2,1.1,0.8,1.2c0.6,0.1,1.1-0.2,1.2-0.8c0.1-0.6-0.2-1.1-0.8-1.2
					C54.4,86.9,53.8,87.3,53.7,87.8"/>
				<path class="st7" d="M51.2,89.8c-0.1,0.3,0.1,0.7,0.5,0.7c0.3,0.1,0.7-0.1,0.7-0.5c0.1-0.3-0.1-0.7-0.5-0.7S51.2,89.4,51.2,89.8
					"/>
			</g>
			<g>
				<g>
					<path class="st8" d="M41.2,79.1c-0.1-2,1.4-3.7,3.4-3.9c2-0.1,3.7,1.4,3.9,3.4c0.1,2-1.4,3.7-3.4,3.9
						C43.1,82.6,41.3,81.1,41.2,79.1"/>
					<path class="st8" d="M49.8,77.7c-0.1-1.4,1-2.6,2.3-2.6c1.4-0.1,2.6,1,2.6,2.3c0.1,1.4-1,2.6-2.3,2.6
						C51.1,80.1,49.9,79.1,49.8,77.7"/>
					<path class="st8" d="M57.5,73c1-0.1,1.9,0.7,2,1.7c0.1,1-0.7,1.9-1.7,2c-1,0.1-1.9-0.7-2-1.7C55.7,74,56.5,73.1,57.5,73"/>
				</g>
			</g>
			<g>
				<path class="st8" d="M61,70.9c0.5,0,1,0.4,1,0.9c0,0.5-0.4,1-0.9,1c-0.5,0-1-0.4-1-0.9C60.1,71.4,60.5,71,61,70.9"/>
			</g>
		</g>
		<g>
			<g>
				<path class="st7" d="M45.4,67.8c-1,0.3-1.5,1.4-1.2,2.3c0.3,1,1.4,1.5,2.3,1.2c1-0.3,1.5-1.4,1.2-2.3
					C47.5,68,46.4,67.5,45.4,67.8"/>
				<path class="st7" d="M54.2,69.1c-0.4-1.3-1.8-2-3.2-1.6c-1.3,0.4-2,1.8-1.6,3.2c0.4,1.3,1.8,2,3.2,1.6
					C53.9,71.9,54.6,70.5,54.2,69.1"/>
				<path class="st7" d="M41.6,67.1c-0.6,0.2-0.9,0.8-0.7,1.3c0.2,0.6,0.8,0.9,1.3,0.7c0.6-0.2,0.9-0.8,0.7-1.3
					C42.7,67.2,42.1,66.9,41.6,67.1"/>
				<path class="st7" d="M38.6,65.9c-0.3,0.1-0.5,0.5-0.4,0.8c0.1,0.3,0.5,0.5,0.8,0.4c0.3-0.1,0.5-0.5,0.4-0.8
					C39.3,66,39,65.8,38.6,65.9"/>
			</g>
			<g>
				<g>
					<path class="st8" d="M42.9,51.9c1.7-1.1,4-0.7,5.1,1c1.1,1.7,0.7,4-1,5.1c-1.7,1.1-4,0.7-5.1-1C40.8,55.3,41.2,53.1,42.9,51.9"
						/>
					<path class="st8" d="M48.4,58.7c1.2-0.8,2.7-0.4,3.5,0.7c0.8,1.2,0.4,2.7-0.7,3.5c-1.1,0.8-2.7,0.4-3.5-0.7
						C46.9,61,47.3,59.5,48.4,58.7"/>
					<path class="st8" d="M56.3,63c0.6,0.9,0.3,2-0.5,2.6c-0.9,0.6-2,0.3-2.6-0.5c-0.6-0.9-0.3-2,0.5-2.6C54.6,62,55.7,62.2,56.3,63
						"/>
				</g>
			</g>
			<g>
				<path class="st8" d="M59.9,65c0.3,0.5,0.2,1.1-0.3,1.4s-1.1,0.2-1.4-0.3c-0.3-0.5-0.2-1.1,0.3-1.4C59,64.4,59.6,64.5,59.9,65"/>
			</g>
		</g>
		<g>
			<g>
				<path class="st7" d="M54.8,50c-0.8-0.7-1.9-0.6-2.6,0.1c-0.7,0.8-0.6,1.9,0.1,2.6c0.8,0.7,1.9,0.6,2.6-0.1
					C55.6,51.9,55.6,50.7,54.8,50"/>
				<path class="st7" d="M58,58.3c0.9-1,0.8-2.6-0.2-3.5c-1-0.9-2.6-0.8-3.5,0.2c-0.9,1-0.8,2.6,0.2,3.5
					C55.5,59.4,57.1,59.3,58,58.3"/>
				<path class="st7" d="M53.4,46.3c-0.4-0.4-1.1-0.4-1.5,0.1c-0.4,0.4-0.4,1.1,0.1,1.5c0.4,0.4,1.1,0.4,1.5-0.1
					C53.9,47.4,53.9,46.7,53.4,46.3"/>
				<path class="st7" d="M53,43.2c-0.3-0.2-0.6-0.2-0.9,0c-0.2,0.3-0.2,0.6,0,0.9c0.3,0.2,0.6,0.2,0.9,0
					C53.3,43.8,53.3,43.4,53,43.2"/>
			</g>
			<g>
				<g>
					<path class="st8" d="M67.3,39.9c1.8,0.9,2.5,3.1,1.6,4.9c-0.9,1.8-3.1,2.5-4.9,1.6c-1.8-0.9-2.5-3.1-1.6-4.9
						C63.3,39.7,65.4,39,67.3,39.9"/>
					<path class="st8" d="M64.1,48c1.2,0.6,1.7,2.1,1.1,3.3c-0.6,1.2-2.1,1.7-3.3,1.1c-1.2-0.6-1.7-2.1-1.1-3.3
						C61.4,47.9,62.9,47.4,64.1,48"/>
					<path class="st8" d="M64.3,57c-0.5,0.9-1.6,1.3-2.5,0.8c-0.9-0.5-1.3-1.6-0.8-2.5c0.5-0.9,1.6-1.3,2.5-0.8
						C64.4,55,64.8,56.1,64.3,57"/>
				</g>
				<g>
					<path class="st8" d="M74.4,31.3c2.3,1.2,3.3,4,2.1,6.3c-1.2,2.3-4,3.3-6.3,2.1c-2.3-1.2-3.3-4-2.1-6.3
						C69.2,31.1,72,30.1,74.4,31.3"/>
				</g>
			</g>
			<g>
				<path class="st8" d="M64.4,61.1c-0.2,0.5-0.8,0.7-1.3,0.4c-0.5-0.2-0.7-0.8-0.4-1.3c0.2-0.5,0.8-0.7,1.3-0.4
					C64.5,60,64.7,60.6,64.4,61.1"/>
			</g>
		</g>
		<g>
			<g>
				<path class="st7" d="M74.9,49.2c0.2-1-0.4-2-1.4-2.2c-1-0.2-2,0.4-2.2,1.4c-0.2,1,0.4,2,1.4,2.2C73.7,50.8,74.7,50.2,74.9,49.2"
					/>
				<path class="st7" d="M69.3,56.1c1.3,0.3,2.7-0.6,3-1.9c0.3-1.3-0.6-2.7-1.9-3c-1.3-0.3-2.7,0.6-3,1.9
					C67.1,54.5,68,55.8,69.3,56.1"/>
				<path class="st7" d="M77.4,46.1c0.1-0.6-0.2-1.1-0.8-1.2c-0.6-0.1-1.1,0.2-1.2,0.8c-0.1,0.6,0.2,1.1,0.8,1.2
					C76.7,47.1,77.3,46.7,77.4,46.1"/>
				<path class="st7" d="M79.9,44.2c0.1-0.3-0.1-0.7-0.5-0.7c-0.3-0.1-0.7,0.1-0.7,0.5c-0.1,0.3,0.1,0.7,0.5,0.7
					C79.5,44.8,79.9,44.6,79.9,44.2"/>
			</g>
			<g>
				<g>
					<path class="st8" d="M89.9,54.9c0.1,2-1.4,3.7-3.4,3.9c-2,0.1-3.7-1.4-3.9-3.4c-0.1-2,1.4-3.7,3.4-3.9
						C88,51.4,89.8,52.9,89.9,54.9"/>
					<path class="st8" d="M81.2,56.3c0.1,1.4-1,2.6-2.3,2.6c-1.4,0.1-2.6-1-2.6-2.3c-0.1-1.4,1-2.6,2.3-2.6
						C80,53.9,81.2,54.9,81.2,56.3"/>
					<path class="st8" d="M73.5,61c-1,0.1-1.9-0.7-2-1.7c-0.1-1,0.7-1.9,1.7-2c1-0.1,1.9,0.7,2,1.7C75.4,60,74.6,60.9,73.5,61"/>
				</g>
			</g>
			<g>
				<path class="st8" d="M70.1,63.1c-0.5,0-1-0.4-1-0.9c0-0.5,0.4-1,0.9-1c0.5,0,1,0.4,1,0.9C71,62.6,70.6,63,70.1,63.1"/>
			</g>
		</g>
		<ellipse transform="matrix(0.7974 -0.6034 0.6034 0.7974 -27.1489 53.1138)" class="st9" cx="65.5" cy="67" rx="3.7" ry="3.7"/>
		<g>
			<path class="st7" d="M76.3,84c0.8,0.7,1.9,0.6,2.6-0.1c0.7-0.8,0.6-1.9-0.1-2.6c-0.8-0.7-1.9-0.6-2.6,0.1
				C75.5,82.1,75.5,83.3,76.3,84"/>
			<path class="st7" d="M73.1,75.7c-0.9,1-0.8,2.6,0.2,3.5c1,0.9,2.6,0.8,3.5-0.2c0.9-1,0.8-2.6-0.2-3.5
				C75.6,74.6,74,74.7,73.1,75.7"/>
			<path class="st7" d="M77.7,87.7c0.4,0.4,1.1,0.4,1.5-0.1c0.4-0.4,0.4-1.1-0.1-1.5c-0.4-0.4-1.1-0.4-1.5,0.1
				C77.2,86.6,77.2,87.3,77.7,87.7"/>
			<path class="st7" d="M78.1,90.8c0.3,0.2,0.6,0.2,0.9,0c0.2-0.3,0.2-0.6,0-0.9c-0.3-0.2-0.6-0.2-0.9,0
				C77.8,90.2,77.8,90.6,78.1,90.8"/>
		</g>
		<g>
			<g>
				<path class="st8" d="M63.8,94.1c-1.8-0.9-2.5-3.1-1.6-4.9c0.9-1.8,3.1-2.5,4.9-1.6c1.8,0.9,2.5,3.1,1.6,4.9
					C67.8,94.3,65.6,95,63.8,94.1"/>
				<path class="st8" d="M67,86c-1.2-0.6-1.7-2.1-1.1-3.3c0.6-1.2,2.1-1.7,3.3-1.1c1.2,0.6,1.7,2.1,1.1,3.3
					C69.7,86.1,68.2,86.6,67,86"/>
				<path class="st8" d="M66.8,76.9c0.5-0.9,1.6-1.3,2.5-0.8c0.9,0.5,1.3,1.6,0.8,2.5c-0.5,0.9-1.6,1.3-2.5,0.8
					C66.7,79,66.3,77.9,66.8,76.9"/>
			</g>
			<g>
				<path class="st8" d="M56.7,102.7c-2.3-1.2-3.3-4-2.1-6.3c1.2-2.3,4-3.3,6.3-2.1c2.3,1.2,3.3,4,2.1,6.3
					C61.9,102.9,59,103.9,56.7,102.7"/>
			</g>
		</g>
		<g>
			<path class="st7" d="M85.6,66.2c1-0.3,1.5-1.4,1.2-2.3c-0.3-1-1.4-1.5-2.3-1.2C83.5,63,83,64,83.3,65
				C83.6,66,84.7,66.5,85.6,66.2"/>
			<path class="st7" d="M76.9,64.8c0.4,1.3,1.8,2,3.2,1.6c1.3-0.4,2-1.8,1.6-3.2c-0.4-1.3-1.8-2-3.2-1.6
				C77.2,62.1,76.5,63.5,76.9,64.8"/>
			<path class="st7" d="M89.5,66.8c0.6-0.2,0.9-0.8,0.7-1.3c-0.2-0.6-0.8-0.9-1.3-0.7c-0.6,0.2-0.9,0.8-0.7,1.3
				C88.4,66.7,89,67,89.5,66.8"/>
			<path class="st7" d="M92.4,68.1c0.3-0.1,0.5-0.5,0.4-0.8c-0.1-0.3-0.5-0.5-0.8-0.4c-0.3,0.1-0.5,0.5-0.4,0.8
				C91.8,68,92.1,68.2,92.4,68.1"/>
		</g>
		<g>
			<path class="st8" d="M66.7,72.9c0.2-0.5,0.8-0.7,1.3-0.4c0.5,0.2,0.7,0.8,0.4,1.3c-0.2,0.5-0.8,0.7-1.3,0.4
				C66.6,74,66.4,73.4,66.7,72.9"/>
		</g>
		<g>
			<g>
				<path class="st8" d="M88.2,82c-1.7,1.1-4,0.7-5.1-1c-1.1-1.7-0.7-4,1-5.1c1.7-1.1,4-0.7,5.1,1C90.3,78.7,89.9,80.9,88.2,82"/>
				<path class="st8" d="M82.7,75.2c-1.2,0.8-2.7,0.4-3.5-0.7c-0.8-1.2-0.4-2.7,0.7-3.5c1.1-0.8,2.7-0.4,3.5,0.7
					C84.1,72.9,83.8,74.5,82.7,75.2"/>
				<path class="st8" d="M74.8,70.9c-0.6-0.9-0.3-2,0.5-2.6c0.9-0.6,2-0.3,2.6,0.5c0.6,0.9,0.3,2-0.5,2.6
					C76.5,72,75.3,71.8,74.8,70.9"/>
			</g>
		</g>
		<g>
			<path class="st8" d="M71.2,69c-0.3-0.5-0.2-1.1,0.3-1.4c0.5-0.3,1.1-0.2,1.4,0.3c0.3,0.5,0.2,1.1-0.3,1.4
				C72.1,69.6,71.5,69.4,71.2,69"/>
		</g>
	</g>
</g>
</svg>
