<?xml version="1.0" encoding="utf-8"?>
<!-- Generator: Adobe Illustrator 20.0.0, SVG Export Plug-In . SVG Version: 6.00 Build 0)  -->
<svg version="1.1" id="Layer_1" xmlns="http://www.w3.org/2000/svg" xmlns:xlink="http://www.w3.org/1999/xlink" x="0px" y="0px"
	 viewBox="0 0 424.9 206.9" style="enable-background:new 0 0 424.9 206.9;" xml:space="preserve">
<style type="text/css">
	.st0{enable-background:new    ;}
	.st1{fill:#FFFFFF;}
	.st2{font-family:'NexaBold';}
	.st3{font-size:38px;}
	.st4{fill:#EC6629;}
	.st5{fill:#2A65AF;}
	.st6{fill:#E4168D;}
</style>
<g id="background">
	<rect x="-1" width="425.9" height="206.9"/>
</g>
<g>
	<g>
		<g>
			<g>
				<text transform="matrix(1 0 0 1 170.7467 70.8229)" class="st0"><tspan x="0" y="0" class="st1 st2 st3">S</tspan><tspan x="24.4" y="0" class="st1 st2 st3">ingularityU</tspan></text>
			</g>
		</g>
	</g>
	<g>
		<g>
			<g>
				<path class="st4" d="M73.8,139.3c-0.4,2,0.9,4,2.9,4.4c2,0.4,4-0.9,4.4-2.9c0.4-2-0.9-4-2.9-4.4C76.2,136,74.2,137.3,73.8,139.3
					"/>
				<path class="st4" d="M85,125.4c-2.7-0.6-5.4,1.2-5.9,3.9c-0.6,2.7,1.2,5.4,3.9,5.9c2.7,0.6,5.4-1.2,5.9-3.9
					C89.4,128.6,87.7,126,85,125.4"/>
				<path class="st4" d="M68.7,145.4c-0.2,1.1,0.5,2.3,1.6,2.5c1.1,0.2,2.3-0.5,2.5-1.6c0.2-1.1-0.5-2.3-1.6-2.5
					C70.1,143.5,69,144.3,68.7,145.4"/>
				<path class="st4" d="M63.6,149.2c-0.1,0.7,0.3,1.3,1,1.5c0.7,0.1,1.3-0.3,1.5-1c0.1-0.7-0.3-1.3-1-1.5
					C64.4,148.1,63.8,148.6,63.6,149.2"/>
			</g>
			<g>
				<g>
					<path class="st5" d="M43.6,127.8c-0.2-4.1,2.8-7.5,6.9-7.8c4.1-0.2,7.5,2.8,7.8,6.9c0.2,4.1-2.8,7.5-6.9,7.8
						C47.3,134.9,43.8,131.8,43.6,127.8"/>
					<path class="st5" d="M61,125c-0.2-2.8,1.9-5.2,4.7-5.3c2.8-0.2,5.2,1.9,5.3,4.7c0.2,2.8-1.9,5.2-4.7,5.3
						C63.5,129.9,61.1,127.8,61,125"/>
					<path class="st5" d="M76.5,115.6c2.1-0.1,3.8,1.4,4,3.5c0.1,2.1-1.4,3.8-3.5,4c-2.1,0.1-3.8-1.4-4-3.5
						C72.8,117.5,74.4,115.7,76.5,115.6"/>
				</g>
			</g>
			<g>
				<path class="st5" d="M83.4,111.3c1.1-0.1,2,0.8,2.1,1.9c0.1,1.1-0.8,2-1.9,2.1c-1.1,0.1-2-0.8-2.1-1.9
					C81.5,112.3,82.3,111.4,83.4,111.3"/>
			</g>
		</g>
		<g>
			<g>
				<path class="st4" d="M52.1,105c-2,0.6-3,2.8-2.4,4.7c0.6,2,2.8,3,4.7,2.4c2-0.6,3-2.8,2.4-4.7C56.2,105.4,54.1,104.4,52.1,105"
					/>
				<path class="st4" d="M69.7,107.7c-0.9-2.6-3.7-4.1-6.3-3.2c-2.6,0.9-4.1,3.7-3.2,6.3c0.9,2.6,3.7,4.1,6.3,3.2
					C69.1,113.2,70.6,110.4,69.7,107.7"/>
				<path class="st4" d="M44.3,103.7c-1.1,0.4-1.7,1.6-1.4,2.7c0.4,1.1,1.6,1.7,2.7,1.4c1.1-0.4,1.7-1.6,1.4-2.7
					C46.6,103.9,45.4,103.3,44.3,103.7"/>
				<path class="st4" d="M38.4,101.2c-0.7,0.2-1,0.9-0.8,1.6c0.2,0.7,0.9,1,1.6,0.8c0.7-0.2,1-0.9,0.8-1.6
					C39.8,101.3,39.1,101,38.4,101.2"/>
			</g>
			<g>
				<g>
					<path class="st5" d="M47,73.1c3.4-2.2,8-1.3,10.2,2.1c2.2,3.4,1.3,8-2.1,10.2c-3.4,2.2-8,1.3-10.2-2.1
						C42.7,79.9,43.6,75.4,47,73.1"/>
					<path class="st5" d="M58.1,86.8c2.3-1.5,5.4-0.9,7,1.4c1.5,2.3,0.9,5.4-1.4,7c-2.3,1.5-5.4,0.9-7-1.4
						C55.1,91.4,55.7,88.3,58.1,86.8"/>
					<path class="st5" d="M74,95.5c1.1,1.7,0.7,4-1.1,5.2c-1.7,1.1-4,0.7-5.2-1.1c-1.1-1.7-0.7-4,1.1-5.2
						C70.5,93.3,72.8,93.8,74,95.5"/>
				</g>
			</g>
			<g>
				<path class="st5" d="M81.1,99.4c0.6,0.9,0.4,2.1-0.6,2.7c-0.9,0.6-2.1,0.4-2.7-0.6c-0.6-0.9-0.4-2.1,0.6-2.7
					C79.3,98.2,80.5,98.5,81.1,99.4"/>
			</g>
		</g>
		<g>
			<g>
				<path class="st4" d="M70.9,69.2c-1.5-1.4-3.9-1.2-5.3,0.3c-1.4,1.5-1.2,3.9,0.3,5.3c1.5,1.4,3.9,1.2,5.3-0.3
					C72.6,73,72.5,70.6,70.9,69.2"/>
				<path class="st4" d="M77.4,85.8c1.9-2.1,1.7-5.2-0.4-7.1c-2.1-1.9-5.2-1.7-7.1,0.4c-1.9,2.1-1.7,5.2,0.4,7.1
					C72.3,88.1,75.5,87.9,77.4,85.8"/>
				<path class="st4" d="M68.2,61.8c-0.9-0.8-2.2-0.7-3,0.2c-0.8,0.9-0.7,2.2,0.2,3c0.9,0.8,2.2,0.7,3-0.2
					C69.1,63.9,69,62.6,68.2,61.8"/>
				<path class="st4" d="M67.4,55.4c-0.5-0.5-1.3-0.4-1.8,0.1c-0.5,0.5-0.4,1.3,0.1,1.8c0.5,0.5,1.3,0.4,1.8-0.1
					C68,56.7,67.9,55.9,67.4,55.4"/>
			</g>
			<g>
				<g>
					<path class="st5" d="M96,48.8c3.6,1.8,5.1,6.2,3.3,9.9c-1.8,3.6-6.2,5.1-9.9,3.3c-3.6-1.8-5.1-6.2-3.3-9.9
						C87.9,48.5,92.4,47,96,48.8"/>
					<path class="st5" d="M89.7,65.3c2.5,1.2,3.5,4.3,2.3,6.7c-1.2,2.5-4.3,3.5-6.7,2.3C82.7,73,81.7,70,83,67.5
						C84.2,65,87.2,64,89.7,65.3"/>
					<path class="st5" d="M90.1,83.4c-0.9,1.8-3.2,2.6-5,1.7c-1.9-0.9-2.6-3.2-1.7-5c0.9-1.8,3.2-2.6,5-1.7
						C90.3,79.3,91,81.6,90.1,83.4"/>
				</g>
				<g>
					<path class="st5" d="M110.3,31.6c4.7,2.3,6.6,8,4.2,12.7c-2.3,4.7-8,6.6-12.7,4.2c-4.7-2.3-6.6-8-4.2-12.7
						C100,31.1,105.6,29.2,110.3,31.6"/>
				</g>
			</g>
			<g>
				<path class="st5" d="M90.3,91.6c-0.5,1-1.7,1.4-2.7,0.9c-1-0.5-1.4-1.7-0.9-2.7c0.5-1,1.7-1.4,2.7-0.9
					C90.4,89.4,90.8,90.6,90.3,91.6"/>
			</g>
		</g>
		<g>
			<g>
				<path class="st4" d="M111.4,67.6c0.4-2-0.9-4-2.9-4.4c-2-0.4-4,0.9-4.4,2.9c-0.4,2,0.9,4,2.9,4.4
					C109,70.9,110.9,69.6,111.4,67.6"/>
				<path class="st4" d="M100.2,81.5c2.7,0.6,5.4-1.2,5.9-3.9c0.6-2.7-1.2-5.4-3.9-5.9c-2.7-0.6-5.4,1.2-5.9,3.9
					C95.7,78.2,97.5,80.9,100.2,81.5"/>
				<path class="st4" d="M116.4,61.5c0.2-1.1-0.5-2.3-1.6-2.5c-1.1-0.2-2.3,0.5-2.5,1.6c-0.2,1.1,0.5,2.3,1.6,2.5
					C115.1,63.3,116.2,62.6,116.4,61.5"/>
				<path class="st4" d="M121.5,57.6c0.1-0.7-0.3-1.3-1-1.5c-0.7-0.1-1.3,0.3-1.5,1c-0.1,0.7,0.3,1.3,1,1.5
					C120.7,58.7,121.4,58.3,121.5,57.6"/>
			</g>
			<g>
				<g>
					<path class="st5" d="M141.5,79.1c0.2,4.1-2.8,7.5-6.9,7.8c-4.1,0.2-7.5-2.8-7.8-6.9c-0.2-4.1,2.8-7.5,6.9-7.8
						C137.8,71.9,141.3,75,141.5,79.1"/>
					<path class="st5" d="M124.2,81.9c0.2,2.8-1.9,5.2-4.7,5.3c-2.8,0.2-5.2-1.9-5.3-4.7c-0.2-2.8,1.9-5.2,4.7-5.3
						C121.6,77,124,79.1,124.2,81.9"/>
					<path class="st5" d="M108.7,91.3c-2.1,0.1-3.8-1.4-4-3.5c-0.1-2.1,1.4-3.8,3.5-4c2.1-0.1,3.8,1.4,4,3.5
						C112.3,89.4,110.7,91.2,108.7,91.3"/>
				</g>
			</g>
			<g>
				<path class="st5" d="M101.7,95.5c-1.1,0.1-2-0.8-2.1-1.9c-0.1-1.1,0.8-2,1.9-2.1c1.1-0.1,2,0.8,2.1,1.9
					C103.6,94.5,102.8,95.5,101.7,95.5"/>
			</g>
		</g>
		
			<ellipse transform="matrix(0.7974 -0.6034 0.6034 0.7974 -43.6613 76.7901)" class="st6" cx="92.5" cy="103.4" rx="7.4" ry="7.4"/>
		<g>
			<path class="st4" d="M114.2,137.6c1.5,1.4,3.9,1.2,5.3-0.3c1.4-1.5,1.2-3.9-0.3-5.3c-1.5-1.4-3.9-1.2-5.3,0.3
				C112.5,133.9,112.7,136.3,114.2,137.6"/>
			<path class="st4" d="M107.8,121c-1.9,2.1-1.7,5.2,0.4,7.1c2.1,1.9,5.2,1.7,7.1-0.4c1.9-2.1,1.7-5.2-0.4-7.1
				C112.8,118.8,109.6,118.9,107.8,121"/>
			<path class="st4" d="M117,145.1c0.9,0.8,2.2,0.7,3-0.2c0.8-0.9,0.7-2.2-0.2-3c-0.9-0.8-2.2-0.7-3,0.2
				C116,143,116.1,144.3,117,145.1"/>
			<path class="st4" d="M117.7,151.4c0.5,0.5,1.3,0.4,1.8-0.1c0.5-0.5,0.4-1.3-0.1-1.8c-0.5-0.5-1.3-0.4-1.8,0.1
				C117.2,150.2,117.2,150.9,117.7,151.4"/>
		</g>
		<g>
			<g>
				<path class="st5" d="M89.1,158c-3.6-1.8-5.1-6.2-3.3-9.9c1.8-3.6,6.2-5.1,9.9-3.3c3.6,1.8,5.1,6.2,3.3,9.9
					C97.2,158.4,92.8,159.8,89.1,158"/>
				<path class="st5" d="M95.4,141.6c-2.5-1.2-3.5-4.3-2.3-6.7c1.2-2.5,4.3-3.5,6.7-2.3c2.5,1.2,3.5,4.3,2.3,6.7
					C100.9,141.8,97.9,142.8,95.4,141.6"/>
				<path class="st5" d="M95,123.5c0.9-1.8,3.2-2.6,5-1.7c1.9,0.9,2.6,3.2,1.7,5c-0.9,1.8-3.2,2.6-5,1.7
					C94.8,127.6,94.1,125.3,95,123.5"/>
			</g>
			<g>
				<path class="st5" d="M74.8,175.3c-4.7-2.3-6.6-8-4.2-12.7c2.3-4.7,8-6.6,12.7-4.2c4.7,2.3,6.6,8,4.2,12.7
					C85.2,175.7,79.5,177.6,74.8,175.3"/>
			</g>
		</g>
		<g>
			<path class="st4" d="M133,101.8c2-0.6,3-2.8,2.4-4.7c-0.6-2-2.8-3-4.7-2.4c-2,0.6-3,2.8-2.4,4.7
				C128.9,101.4,131.1,102.4,133,101.8"/>
			<path class="st4" d="M115.4,99.1c0.9,2.6,3.7,4.1,6.3,3.2c2.6-0.9,4.1-3.7,3.2-6.3c-0.9-2.6-3.7-4.1-6.3-3.2
				C116,93.6,114.5,96.4,115.4,99.1"/>
			<path class="st4" d="M140.9,103.1c1.1-0.4,1.7-1.6,1.4-2.7c-0.4-1.1-1.6-1.7-2.7-1.4c-1.1,0.4-1.7,1.6-1.4,2.7
				C138.5,102.9,139.7,103.5,140.9,103.1"/>
			<path class="st4" d="M146.7,105.6c0.7-0.2,1-0.9,0.8-1.6c-0.2-0.7-0.9-1-1.6-0.8c-0.7,0.2-1,0.9-0.8,1.6S146.1,105.8,146.7,105.6
				"/>
		</g>
		<g>
			<path class="st5" d="M94.8,115.3c0.5-1,1.7-1.4,2.7-0.9c1,0.5,1.4,1.7,0.9,2.7c-0.5,1-1.7,1.4-2.7,0.9
				C94.7,117.5,94.3,116.3,94.8,115.3"/>
		</g>
		<g>
			<g>
				<path class="st5" d="M138.1,133.7c-3.4,2.2-8,1.3-10.2-2.1c-2.2-3.4-1.3-8,2.1-10.2c3.4-2.2,8-1.3,10.2,2.1
					C142.5,126.9,141.5,131.5,138.1,133.7"/>
				<path class="st5" d="M127.1,120c-2.3,1.5-5.4,0.9-7-1.4c-1.5-2.3-0.9-5.4,1.4-7c2.3-1.5,5.4-0.9,7,1.4
					C130,115.4,129.4,118.5,127.1,120"/>
				<path class="st5" d="M111.1,111.3c-1.1-1.7-0.7-4,1.1-5.2c1.7-1.1,4-0.7,5.2,1.1c1.1,1.7,0.7,4-1.1,5.2
					C114.6,113.5,112.3,113.1,111.1,111.3"/>
			</g>
		</g>
		<g>
			<path class="st5" d="M104,107.4c-0.6-0.9-0.4-2.1,0.6-2.7c0.9-0.6,2.1-0.4,2.7,0.6c0.6,0.9,0.4,2.1-0.6,2.7
				C105.8,108.6,104.6,108.3,104,107.4"/>
		</g>
	</g>
</g>
</svg>
