<?xml version="1.0" encoding="utf-8"?>
<!-- Generator: Adobe Illustrator 20.0.0, SVG Export Plug-In . SVG Version: 6.00 Build 0)  -->
<svg version="1.1" id="Layer_1" xmlns="http://www.w3.org/2000/svg" xmlns:xlink="http://www.w3.org/1999/xlink" x="0px" y="0px"
	 viewBox="0 0 341.4 103.4" style="enable-background:new 0 0 341.4 103.4;" xml:space="preserve">
<style type="text/css">
	.st0{fill:none;}
	.st1{fill:#231F20;}
	.st2{enable-background:new    ;}
	.st3{fill:url(#SVGID_1_);}
	.st4{font-family:'NexaBold';}
	.st5{font-size:37.2983px;}
	.st6{fill:url(#SVGID_2_);}
	.st7{fill:#EC6629;}
	.st8{fill:#2A65AF;}
	.st9{fill:#E4168D;}
</style>
<pattern  y="103.4" width="33.3" height="33.3" patternUnits="userSpaceOnUse" id="New_Pattern_Swatch_1" viewBox="0 -33.3 33.3 33.3" style="overflow:visible;">
	<g>
		<rect y="-33.3" class="st0" width="33.3" height="33.3"/>
		<g>
			<rect x="0" y="-33.3" class="st1" width="33.3" height="33.3"/>
		</g>
	</g>
</pattern>
<title>logo 2 w</title>
<g>
	<g>
		<g>
			<text transform="matrix(1 0 0 1 99.0122 39.4517)" class="st2">			<pattern  id="SVGID_1_" xlink:href="#New_Pattern_Swatch_1" patternTransform="matrix(0.922 0 0 0.922 -682.0179 -498.0121)"  class="st2">
			</pattern>
<tspan x="0" y="0" class="st3 st4 st5">S</tspan>			<pattern  id="SVGID_2_" xlink:href="#New_Pattern_Swatch_1" patternTransform="matrix(0.922 0 0 0.922 -682.0179 -498.0121)"  class="st2">
			</pattern>
<tspan x="23.9" y="0" class="st6 st4 st5">ingularityU</tspan></text>
		</g>
	</g>
	<g>
		<g>
			<g>
				<path class="st7" d="M25.7,77.2c-0.3,1.4,0.6,2.8,2.1,3.1c1.4,0.3,2.8-0.6,3.1-2.1c0.3-1.4-0.6-2.8-2.1-3.1
					C27.4,74.8,26,75.7,25.7,77.2"/>
				<path class="st7" d="M33.7,67.3c-1.9-0.4-3.8,0.8-4.2,2.8c-0.4,1.9,0.8,3.8,2.8,4.2c1.9,0.4,3.8-0.8,4.2-2.8
					C36.8,69.6,35.6,67.7,33.7,67.3"/>
				<path class="st7" d="M22.1,81.5c-0.2,0.8,0.4,1.6,1.2,1.8c0.8,0.2,1.6-0.4,1.8-1.2c0.2-0.8-0.4-1.6-1.2-1.8
					C23.1,80.2,22.3,80.7,22.1,81.5"/>
				<path class="st7" d="M18.5,84.2c-0.1,0.5,0.2,0.9,0.7,1c0.5,0.1,0.9-0.2,1-0.7c0.1-0.5-0.2-0.9-0.7-1S18.6,83.8,18.5,84.2"/>
			</g>
			<g>
				<g>
					<path class="st8" d="M4.3,69c-0.2-2.9,2-5.4,4.9-5.5c2.9-0.2,5.4,2,5.5,4.9c0.2,2.9-2,5.4-4.9,5.5C6.9,74.1,4.5,71.9,4.3,69"/>
					<path class="st8" d="M16.6,67c-0.1-2,1.4-3.7,3.3-3.8c2-0.1,3.7,1.4,3.8,3.3c0.1,2-1.4,3.7-3.3,3.8C18.4,70.5,16.7,69,16.6,67"
						/>
					<path class="st8" d="M27.6,60.3c1.5-0.1,2.7,1,2.8,2.5c0.1,1.5-1,2.7-2.5,2.8c-1.5,0.1-2.7-1-2.8-2.5
						C25,61.7,26.2,60.4,27.6,60.3"/>
				</g>
			</g>
			<g>
				<path class="st8" d="M32.6,57.3c0.8,0,1.4,0.5,1.5,1.3c0,0.8-0.5,1.4-1.3,1.5c-0.8,0-1.4-0.5-1.5-1.3
					C31.2,58,31.8,57.4,32.6,57.3"/>
			</g>
		</g>
		<g>
			<g>
				<path class="st7" d="M10.3,52.8c-1.4,0.5-2.2,2-1.7,3.4c0.5,1.4,2,2.2,3.4,1.7c1.4-0.5,2.2-2,1.7-3.4
					C13.2,53.1,11.7,52.4,10.3,52.8"/>
				<path class="st7" d="M22.8,54.8c-0.6-1.9-2.6-2.9-4.5-2.3c-1.9,0.6-2.9,2.6-2.3,4.5c0.6,1.9,2.6,2.9,4.5,2.3
					C22.4,58.7,23.5,56.7,22.8,54.8"/>
				<path class="st7" d="M4.8,51.9c-0.8,0.3-1.2,1.1-1,1.9c0.3,0.8,1.1,1.2,1.9,1c0.8-0.3,1.2-1.1,1-1.9C6.4,52.1,5.6,51.6,4.8,51.9
					"/>
				<path class="st7" d="M0.6,50.1c-0.5,0.2-0.7,0.7-0.6,1.1c0.2,0.5,0.7,0.7,1.1,0.6c0.5-0.2,0.7-0.7,0.6-1.1
					C1.6,50.2,1.1,50,0.6,50.1"/>
			</g>
			<g>
				<g>
					<path class="st8" d="M6.7,30.2c2.4-1.6,5.6-0.9,7.2,1.5c1.6,2.4,0.9,5.6-1.5,7.2c-2.4,1.6-5.6,0.9-7.2-1.5
						C3.6,35,4.3,31.8,6.7,30.2"/>
					<path class="st8" d="M14.6,39.9c1.6-1.1,3.9-0.6,4.9,1c1.1,1.6,0.6,3.9-1,4.9c-1.6,1.1-3.9,0.6-4.9-1
						C12.5,43.2,12.9,41,14.6,39.9"/>
					<path class="st8" d="M25.9,46.1c0.8,1.2,0.5,2.9-0.8,3.7c-1.2,0.8-2.9,0.5-3.7-0.8c-0.8-1.2-0.5-2.9,0.8-3.7
						C23.4,44.5,25.1,44.9,25.9,46.1"/>
				</g>
			</g>
			<g>
				<path class="st8" d="M30.9,48.9c0.4,0.6,0.3,1.5-0.4,2c-0.6,0.4-1.5,0.3-2-0.4c-0.4-0.6-0.3-1.5,0.4-2
					C29.6,48,30.5,48.2,30.9,48.9"/>
			</g>
		</g>
		<g>
			<g>
				<path class="st7" d="M23.7,27.4c-1.1-1-2.8-0.9-3.8,0.2c-1,1.1-0.9,2.8,0.2,3.8c1.1,1,2.8,0.9,3.8-0.2
					C24.9,30.1,24.8,28.4,23.7,27.4"/>
				<path class="st7" d="M28.3,39.2c1.3-1.5,1.2-3.7-0.3-5c-1.5-1.3-3.7-1.2-5,0.3c-1.3,1.5-1.2,3.7,0.3,5
					C24.7,40.8,27,40.7,28.3,39.2"/>
				<path class="st7" d="M21.7,22.1c-0.6-0.6-1.6-0.5-2.1,0.1c-0.6,0.6-0.5,1.6,0.1,2.1c0.6,0.6,1.6,0.5,2.1-0.1
					C22.4,23.7,22.4,22.7,21.7,22.1"/>
				<path class="st7" d="M21.2,17.7c-0.4-0.3-0.9-0.3-1.2,0.1c-0.3,0.4-0.3,0.9,0.1,1.2c0.4,0.3,0.9,0.3,1.2-0.1S21.6,18,21.2,17.7"
					/>
			</g>
			<g>
				<g>
					<path class="st8" d="M41.5,13c2.6,1.3,3.6,4.4,2.3,7c-1.3,2.6-4.4,3.6-7,2.3c-2.6-1.3-3.6-4.4-2.3-7
						C35.8,12.7,38.9,11.7,41.5,13"/>
					<path class="st8" d="M37,24.6c1.8,0.9,2.5,3,1.6,4.8c-0.9,1.8-3,2.5-4.8,1.6c-1.8-0.9-2.5-3-1.6-4.8
						C33.1,24.5,35.3,23.7,37,24.6"/>
					<path class="st8" d="M37.3,37.5c-0.7,1.3-2.3,1.8-3.6,1.2c-1.3-0.7-1.8-2.3-1.2-3.6c0.7-1.3,2.3-1.8,3.6-1.2
						C37.4,34.6,38,36.2,37.3,37.5"/>
				</g>
				<g>
					<path class="st8" d="M51.6,0.7c3.3,1.7,4.7,5.7,3,9c-1.7,3.3-5.7,4.7-9,3c-3.3-1.7-4.7-5.7-3-9C44.3,0.4,48.3-0.9,51.6,0.7"/>
				</g>
			</g>
			<g>
				<path class="st8" d="M37.5,43.3c-0.3,0.7-1.2,1-1.9,0.6c-0.7-0.3-1-1.2-0.6-1.9c0.3-0.7,1.2-1,1.9-0.6
					C37.5,41.7,37.8,42.6,37.5,43.3"/>
			</g>
		</g>
		<g>
			<g>
				<path class="st7" d="M52.4,26.3c0.3-1.4-0.6-2.8-2.1-3.1c-1.4-0.3-2.8,0.6-3.1,2.1c-0.3,1.4,0.6,2.8,2.1,3.1
					C50.7,28.6,52.1,27.7,52.4,26.3"/>
				<path class="st7" d="M44.5,36.1c1.9,0.4,3.8-0.8,4.2-2.8c0.4-1.9-0.8-3.8-2.8-4.2c-1.9-0.4-3.8,0.8-4.2,2.8
					C41.3,33.8,42.5,35.7,44.5,36.1"/>
				<path class="st7" d="M56,21.9c0.2-0.8-0.4-1.6-1.2-1.8C54,20,53.2,20.5,53,21.3c-0.2,0.8,0.4,1.6,1.2,1.8
					C55,23.3,55.8,22.7,56,21.9"/>
				<path class="st7" d="M59.6,19.2c0.1-0.5-0.2-0.9-0.7-1c-0.5-0.1-0.9,0.2-1,0.7c-0.1,0.5,0.2,0.9,0.7,1S59.5,19.7,59.6,19.2"/>
			</g>
			<g>
				<g>
					<path class="st8" d="M73.8,34.4c0.2,2.9-2,5.4-4.9,5.5c-2.9,0.2-5.4-2-5.5-4.9c-0.2-2.9,2-5.4,4.9-5.5
						C71.2,29.4,73.6,31.6,73.8,34.4"/>
					<path class="st8" d="M61.5,36.4c0.1,2-1.4,3.7-3.3,3.8c-2,0.1-3.7-1.4-3.8-3.3c-0.1-2,1.4-3.7,3.3-3.8
						C59.7,32.9,61.4,34.4,61.5,36.4"/>
					<path class="st8" d="M50.5,43.1c-1.5,0.1-2.7-1-2.8-2.5c-0.1-1.5,1-2.7,2.5-2.8c1.5-0.1,2.7,1,2.8,2.5
						C53.1,41.8,52,43,50.5,43.1"/>
				</g>
			</g>
			<g>
				<path class="st8" d="M45.5,46.1c-0.8,0-1.4-0.5-1.5-1.3c0-0.8,0.5-1.4,1.3-1.5c0.8,0,1.4,0.5,1.5,1.3
					C46.9,45.4,46.3,46.1,45.5,46.1"/>
			</g>
		</g>
		<ellipse transform="matrix(0.7974 -0.6034 0.6034 0.7974 -23.2982 34.0343)" class="st9" cx="39" cy="51.7" rx="5.2" ry="5.2"/>
		<g>
			<path class="st7" d="M54.4,76c1.1,1,2.8,0.9,3.8-0.2c1-1.1,0.9-2.8-0.2-3.8c-1.1-1-2.8-0.9-3.8,0.2C53.2,73.3,53.3,75,54.4,76"/>
			<path class="st7" d="M49.8,64.2c-1.3,1.5-1.2,3.7,0.3,5c1.5,1.3,3.7,1.2,5-0.3c1.3-1.5,1.2-3.7-0.3-5
				C53.4,62.6,51.2,62.7,49.8,64.2"/>
			<path class="st7" d="M56.4,81.3c0.6,0.6,1.6,0.5,2.1-0.1c0.6-0.6,0.5-1.6-0.1-2.1c-0.6-0.6-1.6-0.5-2.1,0.1
				C55.7,79.8,55.8,80.7,56.4,81.3"/>
			<path class="st7" d="M56.9,85.8c0.4,0.3,0.9,0.3,1.2-0.1c0.3-0.4,0.3-0.9-0.1-1.2c-0.4-0.3-0.9-0.3-1.2,0.1
				C56.5,84.9,56.6,85.5,56.9,85.8"/>
		</g>
		<g>
			<g>
				<path class="st8" d="M36.6,90.5c-2.6-1.3-3.6-4.4-2.3-7c1.3-2.6,4.4-3.6,7-2.3c2.6,1.3,3.6,4.4,2.3,7
					C42.3,90.7,39.2,91.8,36.6,90.5"/>
				<path class="st8" d="M41.1,78.8c-1.8-0.9-2.5-3-1.6-4.8c0.9-1.8,3-2.5,4.8-1.6c1.8,0.9,2.5,3,1.6,4.8C45,79,42.8,79.7,41.1,78.8
					"/>
				<path class="st8" d="M40.8,65.9c0.7-1.3,2.3-1.8,3.6-1.2c1.3,0.7,1.8,2.3,1.2,3.6c-0.7,1.3-2.3,1.8-3.6,1.2
					C40.7,68.8,40.1,67.2,40.8,65.9"/>
			</g>
			<g>
				<path class="st8" d="M26.5,102.7c-3.3-1.7-4.7-5.7-3-9c1.7-3.3,5.7-4.7,9-3c3.3,1.7,4.7,5.7,3,9C33.8,103,29.8,104.4,26.5,102.7
					"/>
			</g>
		</g>
		<g>
			<path class="st7" d="M67.8,50.6c1.4-0.5,2.2-2,1.7-3.4c-0.5-1.4-2-2.2-3.4-1.7c-1.4,0.5-2.2,2-1.7,3.4
				C64.9,50.3,66.4,51,67.8,50.6"/>
			<path class="st7" d="M55.3,48.6c0.6,1.9,2.6,2.9,4.5,2.3c1.9-0.6,2.9-2.6,2.3-4.5c-0.6-1.9-2.6-2.9-4.5-2.3
				C55.7,44.7,54.7,46.7,55.3,48.6"/>
			<path class="st7" d="M73.3,51.5c0.8-0.3,1.2-1.1,1-1.9c-0.3-0.8-1.1-1.2-1.9-1c-0.8,0.3-1.2,1.1-1,1.9
				C71.7,51.3,72.5,51.8,73.3,51.5"/>
			<path class="st7" d="M77.5,53.3c0.5-0.2,0.7-0.7,0.6-1.1c-0.2-0.5-0.7-0.7-1.1-0.6c-0.5,0.2-0.7,0.7-0.6,1.1
				C76.5,53.2,77,53.4,77.5,53.3"/>
		</g>
		<g>
			<path class="st8" d="M40.6,60.2c0.3-0.7,1.2-1,1.9-0.6c0.7,0.3,1,1.2,0.6,1.9c-0.3,0.7-1.2,1-1.9,0.6
				C40.6,61.7,40.3,60.8,40.6,60.2"/>
		</g>
		<g>
			<g>
				<path class="st8" d="M71.4,73.2c-2.4,1.6-5.6,0.9-7.2-1.5c-1.6-2.4-0.9-5.6,1.5-7.2c2.4-1.6,5.6-0.9,7.2,1.5
					C74.5,68.4,73.8,71.6,71.4,73.2"/>
				<path class="st8" d="M63.5,63.5c-1.6,1.1-3.9,0.6-4.9-1c-1.1-1.6-0.6-3.9,1-4.9c1.6-1.1,3.9-0.6,4.9,1
					C65.6,60.2,65.2,62.4,63.5,63.5"/>
				<path class="st8" d="M52.2,57.3c-0.8-1.2-0.5-2.9,0.8-3.7c1.2-0.8,2.9-0.5,3.7,0.8c0.8,1.2,0.5,2.9-0.8,3.7
					C54.7,58.9,53.1,58.6,52.2,57.3"/>
			</g>
		</g>
		<g>
			<path class="st8" d="M47.2,54.5c-0.4-0.6-0.3-1.5,0.4-2c0.6-0.4,1.5-0.3,2,0.4c0.4,0.6,0.3,1.5-0.4,2
				C48.5,55.4,47.6,55.2,47.2,54.5"/>
		</g>
	</g>
</g>
</svg>
