<?xml version="1.0" encoding="utf-8"?>
<!-- Generator: Adobe Illustrator 20.0.0, SVG Export Plug-In . SVG Version: 6.00 Build 0)  -->
<svg version="1.1" id="Layer_1" xmlns="http://www.w3.org/2000/svg" xmlns:xlink="http://www.w3.org/1999/xlink" x="0px" y="0px"
	 viewBox="0 0 350.4 137.9" style="enable-background:new 0 0 350.4 137.9;" xml:space="preserve">
<style type="text/css">
	.st0{enable-background:new    ;}
	.st1{fill:#FFFFFF;}
	.st2{font-family:'NexaBold';}
	.st3{font-size:35.8563px;}
	.st4{fill:#EC6629;}
	.st5{fill:#2A65AF;}
	.st6{fill:#E4168D;}
</style>
<g>
	<g>
		<g>
			<g>
				<g>
					<text transform="matrix(1 0 0 1 125.6895 38.1832)" class="st0"><tspan x="0" y="0" class="st1 st2 st3">S</tspan><tspan x="23" y="0" class="st1 st2 st3">ingularityU</tspan></text>
				</g>
			</g>
		</g>
	</g>
	<g>
		<g>
			<g>
				<path class="st4" d="M34.2,102.8c-0.4,1.9,0.8,3.8,2.7,4.2c1.9,0.4,3.8-0.8,4.2-2.7c0.4-1.9-0.8-3.8-2.7-4.2
					C36.5,99.6,34.6,100.9,34.2,102.8"/>
				<path class="st4" d="M44.7,89.7c-2.6-0.5-5.1,1.1-5.6,3.7c-0.5,2.6,1.1,5.1,3.7,5.6c2.6,0.5,5.1-1.1,5.6-3.7
					C48.9,92.7,47.3,90.2,44.7,89.7"/>
				<path class="st4" d="M29.4,108.6c-0.2,1.1,0.5,2.1,1.5,2.4c1.1,0.2,2.1-0.5,2.4-1.5c0.2-1.1-0.5-2.1-1.5-2.4
					C30.7,106.8,29.6,107.5,29.4,108.6"/>
				<path class="st4" d="M24.6,112.2c-0.1,0.6,0.3,1.3,0.9,1.4c0.6,0.1,1.3-0.3,1.4-0.9c0.1-0.6-0.3-1.3-0.9-1.4
					C25.4,111.1,24.7,111.5,24.6,112.2"/>
			</g>
			<g>
				<g>
					<path class="st5" d="M5.7,91.9c-0.2-3.8,2.7-7.1,6.5-7.3c3.8-0.2,7.1,2.7,7.3,6.5c0.2,3.8-2.7,7.1-6.5,7.3
						C9.2,98.7,5.9,95.7,5.7,91.9"/>
					<path class="st5" d="M22.1,89.3c-0.2-2.6,1.8-4.9,4.4-5c2.6-0.2,4.9,1.8,5,4.4c0.2,2.6-1.8,4.9-4.4,5
						C24.5,93.9,22.3,91.9,22.1,89.3"/>
					<path class="st5" d="M36.7,80.4c1.9-0.1,3.6,1.4,3.7,3.3c0.1,1.9-1.4,3.6-3.3,3.7c-1.9,0.1-3.6-1.4-3.7-3.3
						C33.3,82.2,34.8,80.5,36.7,80.4"/>
				</g>
			</g>
			<g>
				<path class="st5" d="M43.3,76.4c1-0.1,1.9,0.7,2,1.8c0.1,1-0.7,1.9-1.8,2c-1,0.1-1.9-0.7-2-1.8C41.5,77.4,42.3,76.5,43.3,76.4"
					/>
			</g>
		</g>
		<g>
			<g>
				<path class="st4" d="M13.7,70.4c-1.9,0.6-2.9,2.6-2.3,4.5c0.6,1.9,2.6,2.9,4.5,2.3c1.9-0.6,2.9-2.6,2.3-4.5
					C17.6,70.8,15.6,69.8,13.7,70.4"/>
				<path class="st4" d="M30.4,73c-0.8-2.5-3.5-3.8-6-3c-2.5,0.8-3.8,3.5-3,6c0.8,2.5,3.5,3.8,6,3C29.8,78.2,31.2,75.5,30.4,73"/>
				<path class="st4" d="M6.3,69.2c-1,0.3-1.6,1.5-1.3,2.5c0.3,1,1.5,1.6,2.5,1.3c1-0.3,1.6-1.5,1.3-2.5C8.5,69.4,7.4,68.9,6.3,69.2
					"/>
				<path class="st4" d="M0.8,66.8c-0.6,0.2-1,0.9-0.7,1.5c0.2,0.6,0.9,1,1.5,0.7c0.6-0.2,1-0.9,0.7-1.5C2.1,67,1.4,66.6,0.8,66.8"
					/>
			</g>
			<g>
				<g>
					<path class="st5" d="M8.9,40.3c3.2-2.1,7.5-1.2,9.6,2c2.1,3.2,1.2,7.5-2,9.6c-3.2,2.1-7.5,1.2-9.6-2
						C4.8,46.8,5.7,42.5,8.9,40.3"/>
					<path class="st5" d="M19.4,53.2c2.2-1.4,5.1-0.8,6.6,1.3c1.4,2.2,0.8,5.1-1.3,6.6c-2.2,1.4-5.1,0.8-6.6-1.3
						C16.6,57.6,17.2,54.7,19.4,53.2"/>
					<path class="st5" d="M34.4,61.5c1.1,1.6,0.6,3.8-1,4.9c-1.6,1.1-3.8,0.6-4.9-1c-1.1-1.6-0.6-3.8,1-4.9
						C31.1,59.4,33.3,59.8,34.4,61.5"/>
				</g>
			</g>
			<g>
				<path class="st5" d="M41.1,65.1c0.6,0.9,0.3,2-0.5,2.6c-0.9,0.6-2,0.3-2.6-0.5c-0.6-0.9-0.3-2,0.5-2.6
					C39.4,64,40.6,64.3,41.1,65.1"/>
			</g>
		</g>
		<g>
			<g>
				<path class="st4" d="M31.5,36.7c-1.5-1.3-3.7-1.2-5,0.3c-1.3,1.5-1.2,3.7,0.3,5c1.5,1.3,3.7,1.2,5-0.3
					C33.1,40.2,33,38,31.5,36.7"/>
				<path class="st4" d="M37.6,52.4c1.7-2,1.6-4.9-0.4-6.7c-2-1.7-4.9-1.6-6.7,0.4c-1.7,2-1.6,4.9,0.4,6.7
					C32.8,54.5,35.8,54.3,37.6,52.4"/>
				<path class="st4" d="M28.9,29.6c-0.8-0.7-2.1-0.7-2.8,0.2c-0.7,0.8-0.7,2.1,0.2,2.8c0.8,0.7,2.1,0.7,2.8-0.2
					C29.8,31.6,29.7,30.4,28.9,29.6"/>
				<path class="st4" d="M28.2,23.7c-0.5-0.4-1.2-0.4-1.7,0.1c-0.4,0.5-0.4,1.2,0.1,1.7c0.5,0.4,1.2,0.4,1.7-0.1
					C28.7,24.8,28.7,24.1,28.2,23.7"/>
			</g>
			<g>
				<g>
					<path class="st5" d="M55.2,17.4c3.4,1.7,4.8,5.9,3.1,9.3c-1.7,3.4-5.9,4.8-9.3,3.1c-3.4-1.7-4.8-5.9-3.1-9.3
						C47.6,17.1,51.7,15.7,55.2,17.4"/>
					<path class="st5" d="M49.2,32.9c2.3,1.2,3.3,4,2.1,6.4c-1.2,2.3-4,3.3-6.4,2.1c-2.3-1.2-3.3-4-2.1-6.4
						C44,32.7,46.9,31.8,49.2,32.9"/>
					<path class="st5" d="M49.6,50.1c-0.9,1.7-3,2.5-4.7,1.6c-1.7-0.9-2.5-3-1.6-4.7c0.9-1.7,3-2.5,4.7-1.6
						C49.8,46.2,50.5,48.3,49.6,50.1"/>
				</g>
				<g>
					<path class="st5" d="M68.7,1.1c4.4,2.2,6.2,7.5,4,11.9c-2.2,4.4-7.5,6.2-12,4c-4.4-2.2-6.2-7.5-4-12
						C58.9,0.7,64.2-1.1,68.7,1.1"/>
				</g>
			</g>
			<g>
				<path class="st5" d="M49.8,57.7c-0.5,0.9-1.6,1.3-2.5,0.8c-0.9-0.5-1.3-1.6-0.8-2.5c0.5-0.9,1.6-1.3,2.5-0.8
					C49.9,55.7,50.3,56.8,49.8,57.7"/>
			</g>
		</g>
		<g>
			<g>
				<path class="st4" d="M69.7,35.1c0.4-1.9-0.8-3.8-2.7-4.2c-1.9-0.4-3.8,0.8-4.2,2.7c-0.4,1.9,0.8,3.8,2.7,4.2
					C67.4,38.3,69.3,37,69.7,35.1"/>
				<path class="st4" d="M59.1,48.2c2.6,0.5,5.1-1.1,5.6-3.7c0.5-2.6-1.1-5.1-3.7-5.6c-2.6-0.5-5.1,1.1-5.6,3.7
					C54.9,45.2,56.5,47.7,59.1,48.2"/>
				<path class="st4" d="M74.4,29.3c0.2-1.1-0.5-2.1-1.5-2.4c-1.1-0.2-2.1,0.5-2.4,1.5c-0.2,1.1,0.5,2.1,1.5,2.4
					C73.1,31.1,74.2,30.4,74.4,29.3"/>
				<path class="st4" d="M79.2,25.7c0.1-0.6-0.3-1.3-0.9-1.4c-0.6-0.1-1.3,0.3-1.4,0.9c-0.1,0.6,0.3,1.3,0.9,1.4
					C78.5,26.8,79.1,26.4,79.2,25.7"/>
			</g>
			<g>
				<g>
					<path class="st5" d="M98.1,46c0.2,3.8-2.7,7.1-6.5,7.3c-3.8,0.2-7.1-2.7-7.3-6.5C84,43,87,39.7,90.8,39.5
						C94.6,39.2,97.9,42.2,98.1,46"/>
					<path class="st5" d="M81.7,48.6c0.2,2.6-1.8,4.9-4.4,5c-2.6,0.2-4.9-1.8-5-4.4c-0.2-2.6,1.8-4.9,4.4-5
						C79.3,44,81.6,46,81.7,48.6"/>
					<path class="st5" d="M67.1,57.5c-1.9,0.1-3.6-1.4-3.7-3.3c-0.1-1.9,1.4-3.6,3.3-3.7c1.9-0.1,3.6,1.4,3.7,3.3
						C70.5,55.7,69.1,57.4,67.1,57.5"/>
				</g>
			</g>
			<g>
				<path class="st5" d="M60.5,61.5c-1,0.1-1.9-0.7-2-1.8c-0.1-1,0.7-1.9,1.8-2c1-0.1,1.9,0.7,2,1.8C62.4,60.5,61.6,61.4,60.5,61.5"
					/>
			</g>
		</g>
		<ellipse transform="matrix(0.7974 -0.6034 0.6034 0.7974 -31.0904 45.2811)" class="st6" cx="51.9" cy="68.9" rx="6.9" ry="6.9"/>
		<g>
			<path class="st4" d="M72.3,101.2c1.5,1.3,3.7,1.2,5-0.3c1.3-1.5,1.2-3.7-0.3-5c-1.5-1.3-3.7-1.2-5,0.3
				C70.8,97.7,70.9,99.9,72.3,101.2"/>
			<path class="st4" d="M66.3,85.5c-1.7,2-1.6,4.9,0.4,6.7c2,1.7,4.9,1.6,6.7-0.4c1.7-2,1.6-4.9-0.4-6.7C71,83.4,68,83.6,66.3,85.5"
				/>
			<path class="st4" d="M75,108.2c0.8,0.7,2.1,0.7,2.8-0.2c0.7-0.8,0.7-2.1-0.2-2.8c-0.8-0.7-2.1-0.7-2.8,0.2
				C74.1,106.2,74.1,107.5,75,108.2"/>
			<path class="st4" d="M75.7,114.2c0.5,0.4,1.2,0.4,1.7-0.1c0.4-0.5,0.4-1.2-0.1-1.7c-0.5-0.4-1.2-0.4-1.7,0.1
				C75.1,113,75.2,113.8,75.7,114.2"/>
		</g>
		<g>
			<g>
				<path class="st5" d="M48.7,120.5c-3.4-1.7-4.8-5.9-3.1-9.3c1.7-3.4,5.9-4.8,9.3-3.1c3.4,1.7,4.8,5.9,3.1,9.3
					C56.3,120.8,52.1,122.2,48.7,120.5"/>
				<path class="st5" d="M54.6,105c-2.3-1.2-3.3-4-2.1-6.4c1.2-2.3,4-3.3,6.4-2.1c2.3,1.2,3.3,4,2.1,6.4
					C59.8,105.2,56.9,106.1,54.6,105"/>
				<path class="st5" d="M54.2,87.8c0.9-1.7,3-2.5,4.7-1.6c1.7,0.9,2.5,3,1.6,4.7c-0.9,1.7-3,2.5-4.7,1.6
					C54,91.7,53.3,89.6,54.2,87.8"/>
			</g>
			<g>
				<path class="st5" d="M35.2,136.8c-4.4-2.2-6.2-7.5-4-11.9c2.2-4.4,7.5-6.2,12-4c4.4,2.2,6.2,7.5,4,12
					C44.9,137.2,39.6,139,35.2,136.8"/>
			</g>
		</g>
		<g>
			<path class="st4" d="M90.1,67.4c1.9-0.6,2.9-2.6,2.3-4.5c-0.6-1.9-2.6-2.9-4.5-2.3c-1.9,0.6-2.9,2.6-2.3,4.5
				C86.2,67,88.2,68,90.1,67.4"/>
			<path class="st4" d="M73.5,64.8c0.8,2.5,3.5,3.8,6,3c2.5-0.8,3.8-3.5,3-6c-0.8-2.5-3.5-3.8-6-3C74,59.7,72.6,62.3,73.5,64.8"/>
			<path class="st4" d="M97.5,68.7c1-0.3,1.6-1.5,1.3-2.5c-0.3-1-1.5-1.6-2.5-1.3c-1,0.3-1.6,1.5-1.3,2.5
				C95.3,68.4,96.4,69,97.5,68.7"/>
			<path class="st4" d="M103,71c0.6-0.2,1-0.9,0.7-1.5c-0.2-0.6-0.9-1-1.5-0.7c-0.6,0.2-1,0.9-0.7,1.5C101.7,70.9,102.4,71.2,103,71
				"/>
		</g>
		<g>
			<path class="st5" d="M54,80.2c0.5-0.9,1.6-1.3,2.5-0.8c0.9,0.5,1.3,1.6,0.8,2.5c-0.5,0.9-1.6,1.3-2.5,0.8
				C53.9,82.2,53.6,81.1,54,80.2"/>
		</g>
		<g>
			<g>
				<path class="st5" d="M94.9,97.5c-3.2,2.1-7.5,1.2-9.6-2c-2.1-3.2-1.2-7.5,2-9.6c3.2-2.1,7.5-1.2,9.6,2
					C99,91.1,98.1,95.4,94.9,97.5"/>
				<path class="st5" d="M84.5,84.6c-2.2,1.4-5.1,0.8-6.6-1.3c-1.4-2.2-0.8-5.1,1.3-6.6c2.2-1.4,5.1-0.8,6.6,1.3
					C87.3,80.2,86.6,83.2,84.5,84.6"/>
				<path class="st5" d="M69.4,76.4c-1.1-1.6-0.6-3.8,1-4.9c1.6-1.1,3.8-0.6,4.9,1c1.1,1.6,0.6,3.8-1,4.9
					C72.7,78.5,70.5,78,69.4,76.4"/>
			</g>
		</g>
		<g>
			<path class="st5" d="M62.7,72.7c-0.6-0.9-0.3-2,0.5-2.6c0.9-0.6,2-0.3,2.6,0.5c0.6,0.9,0.3,2-0.5,2.6
				C64.4,73.8,63.3,73.6,62.7,72.7"/>
		</g>
	</g>
</g>
</svg>
