<?xml version="1.0" encoding="utf-8"?>
<!-- Generator: Adobe Illustrator 20.0.0, SVG Export Plug-In . SVG Version: 6.00 Build 0)  -->
<svg version="1.1" id="Layer_1" xmlns="http://www.w3.org/2000/svg" xmlns:xlink="http://www.w3.org/1999/xlink" x="0px" y="0px"
	 viewBox="0 0 291.2 68.9" style="enable-background:new 0 0 291.2 68.9;" xml:space="preserve">
<style type="text/css">
	.st0{enable-background:new    ;}
	.st1{fill:#FFFFFF;}
	.st2{font-family:'NexaBold';}
	.st3{font-size:38.5254px;}
	.st4{fill:#EC6629;}
	.st5{fill:#2A65AF;}
	.st6{fill:#E4168D;}
</style>
<title>file 1 w</title>
<g>
	<text transform="matrix(1 0 0 1 63.1616 48.5361)" class="st0"><tspan x="0" y="0" class="st1 st2 st3">S</tspan><tspan x="24.7" y="0" class="st1 st2 st3">ingularityU</tspan></text>
	<g>
		<g>
			<g>
				<path class="st4" d="M17.1,51.4c-0.2,1,0.4,1.9,1.4,2.1c1,0.2,1.9-0.4,2.1-1.4c0.2-1-0.4-1.9-1.4-2.1
					C18.3,49.9,17.3,50.5,17.1,51.4"/>
				<path class="st4" d="M22.4,44.9c-1.3-0.3-2.5,0.6-2.8,1.8c-0.3,1.3,0.6,2.5,1.8,2.8c1.3,0.3,2.5-0.6,2.8-1.8
					C24.5,46.4,23.7,45.1,22.4,44.9"/>
				<path class="st4" d="M14.7,54.3c-0.1,0.5,0.2,1.1,0.8,1.2c0.5,0.1,1.1-0.2,1.2-0.8c0.1-0.5-0.2-1.1-0.8-1.2
					C15.4,53.4,14.9,53.8,14.7,54.3"/>
				<path class="st4" d="M12.3,56.1c-0.1,0.3,0.1,0.6,0.5,0.7c0.3,0.1,0.6-0.1,0.7-0.5c0.1-0.3-0.1-0.6-0.5-0.7S12.4,55.8,12.3,56.1
					"/>
			</g>
			<g>
				<g>
					<path class="st5" d="M2.9,46c-0.1-1.9,1.3-3.6,3.3-3.7c1.9-0.1,3.6,1.3,3.7,3.3c0.1,1.9-1.3,3.6-3.3,3.7
						C4.6,49.4,3,47.9,2.9,46"/>
					<path class="st5" d="M11.1,44.7c-0.1-1.3,0.9-2.4,2.2-2.5c1.3-0.1,2.4,0.9,2.5,2.2c0.1,1.3-0.9,2.4-2.2,2.5
						C12.3,47,11.2,46,11.1,44.7"/>
					<path class="st5" d="M18.4,40.2c1-0.1,1.8,0.7,1.9,1.7c0.1,1-0.7,1.8-1.7,1.9c-1,0.1-1.8-0.7-1.9-1.7
						C16.7,41.1,17.4,40.3,18.4,40.2"/>
				</g>
			</g>
			<g>
				<path class="st5" d="M21.7,38.2c0.5,0,1,0.4,1,0.9c0,0.5-0.4,1-0.9,1c-0.5,0-1-0.4-1-0.9C20.8,38.7,21.2,38.2,21.7,38.2"/>
			</g>
		</g>
		<g>
			<g>
				<path class="st4" d="M6.9,35.2c-0.9,0.3-1.4,1.3-1.1,2.2c0.3,0.9,1.3,1.4,2.2,1.1c0.9-0.3,1.4-1.3,1.1-2.2
					C8.8,35.4,7.8,34.9,6.9,35.2"/>
				<path class="st4" d="M15.2,36.5c-0.4-1.2-1.8-1.9-3-1.5c-1.2,0.4-1.9,1.8-1.5,3c0.4,1.2,1.8,1.9,3,1.5
					C15,39.1,15.6,37.8,15.2,36.5"/>
				<path class="st4" d="M3.2,34.6c-0.5,0.2-0.8,0.7-0.6,1.3c0.2,0.5,0.7,0.8,1.3,0.6c0.5-0.2,0.8-0.7,0.6-1.3
					C4.3,34.7,3.7,34.4,3.2,34.6"/>
				<path class="st4" d="M0.4,33.4c-0.3,0.1-0.5,0.4-0.4,0.7c0.1,0.3,0.4,0.5,0.7,0.4c0.3-0.1,0.5-0.4,0.4-0.7
					C1,33.5,0.7,33.3,0.4,33.4"/>
			</g>
			<g>
				<g>
					<path class="st5" d="M4.5,20.1c1.6-1.1,3.8-0.6,4.8,1c1.1,1.6,0.6,3.8-1,4.8c-1.6,1.1-3.8,0.6-4.8-1
						C2.4,23.3,2.9,21.2,4.5,20.1"/>
					<path class="st5" d="M9.7,26.6c1.1-0.7,2.6-0.4,3.3,0.7c0.7,1.1,0.4,2.6-0.7,3.3C11.2,31.3,9.8,31,9,29.9
						C8.3,28.8,8.6,27.3,9.7,26.6"/>
					<path class="st5" d="M17.2,30.7c0.5,0.8,0.3,1.9-0.5,2.5c-0.8,0.5-1.9,0.3-2.5-0.5c-0.5-0.8-0.3-1.9,0.5-2.5
						C15.6,29.7,16.7,29.9,17.2,30.7"/>
				</g>
			</g>
			<g>
				<path class="st5" d="M20.6,32.6c0.3,0.4,0.2,1-0.3,1.3c-0.4,0.3-1,0.2-1.3-0.3c-0.3-0.4-0.2-1,0.3-1.3
					C19.8,32,20.3,32.1,20.6,32.6"/>
			</g>
		</g>
		<g>
			<g>
				<path class="st4" d="M15.8,18.3c-0.7-0.7-1.8-0.6-2.5,0.1c-0.7,0.7-0.6,1.8,0.1,2.5c0.7,0.7,1.8,0.6,2.5-0.1
					C16.6,20.1,16.5,18.9,15.8,18.3"/>
				<path class="st4" d="M18.8,26.2c0.9-1,0.8-2.5-0.2-3.4c-1-0.9-2.5-0.8-3.4,0.2c-0.9,1-0.8,2.5,0.2,3.4
					C16.5,27.2,18,27.1,18.8,26.2"/>
				<path class="st4" d="M14.5,14.8c-0.4-0.4-1-0.3-1.4,0.1c-0.4,0.4-0.3,1,0.1,1.4c0.4,0.4,1,0.3,1.4-0.1
					C14.9,15.8,14.9,15.1,14.5,14.8"/>
				<path class="st4" d="M14.1,11.8c-0.2-0.2-0.6-0.2-0.8,0c-0.2,0.2-0.2,0.6,0,0.8c0.2,0.2,0.6,0.2,0.8,0
					C14.4,12.4,14.4,12,14.1,11.8"/>
			</g>
			<g>
				<g>
					<path class="st5" d="M27.7,8.6c1.7,0.9,2.4,2.9,1.6,4.7c-0.9,1.7-2.9,2.4-4.7,1.6c-1.7-0.9-2.4-2.9-1.6-4.7
						C23.8,8.5,25.9,7.8,27.7,8.6"/>
					<path class="st5" d="M24.7,16.4c1.2,0.6,1.7,2,1.1,3.2c-0.6,1.2-2,1.7-3.2,1.1c-1.2-0.6-1.7-2-1.1-3.2
						C22.1,16.3,23.5,15.8,24.7,16.4"/>
					<path class="st5" d="M24.9,25c-0.4,0.9-1.5,1.2-2.4,0.8c-0.9-0.4-1.2-1.5-0.8-2.4c0.4-0.9,1.5-1.2,2.4-0.8
						C25,23.1,25.3,24.1,24.9,25"/>
				</g>
				<g>
					<path class="st5" d="M34.4,0.5c2.2,1.1,3.1,3.8,2,6c-1.1,2.2-3.8,3.1-6,2c-2.2-1.1-3.1-3.8-2-6C29.5,0.3,32.2-0.6,34.4,0.5"/>
				</g>
			</g>
			<g>
				<path class="st5" d="M25,28.9c-0.2,0.5-0.8,0.7-1.3,0.4c-0.5-0.2-0.7-0.8-0.4-1.3c0.2-0.5,0.8-0.7,1.3-0.4
					C25,27.8,25.2,28.4,25,28.9"/>
			</g>
		</g>
		<g>
			<g>
				<path class="st4" d="M34.9,17.5c0.2-1-0.4-1.9-1.4-2.1c-1-0.2-1.9,0.4-2.1,1.4c-0.2,1,0.4,1.9,1.4,2.1
					C33.8,19.1,34.7,18.5,34.9,17.5"/>
				<path class="st4" d="M29.6,24.1c1.3,0.3,2.5-0.6,2.8-1.8c0.3-1.3-0.6-2.5-1.8-2.8c-1.3-0.3-2.5,0.6-2.8,1.8
					C27.5,22.6,28.3,23.8,29.6,24.1"/>
				<path class="st4" d="M37.3,14.6c0.1-0.5-0.2-1.1-0.8-1.2c-0.5-0.1-1.1,0.2-1.2,0.8c-0.1,0.5,0.2,1.1,0.8,1.2
					C36.7,15.5,37.2,15.2,37.3,14.6"/>
				<path class="st4" d="M39.7,12.8c0.1-0.3-0.1-0.6-0.5-0.7c-0.3-0.1-0.6,0.1-0.7,0.5c-0.1,0.3,0.1,0.6,0.5,0.7
					S39.7,13.1,39.7,12.8"/>
			</g>
			<g>
				<g>
					<path class="st5" d="M49.2,23c0.1,1.9-1.3,3.6-3.3,3.7c-1.9,0.1-3.6-1.3-3.7-3.3c-0.1-1.9,1.3-3.6,3.3-3.7
						C47.4,19.6,49.1,21,49.2,23"/>
					<path class="st5" d="M41,24.3c0.1,1.3-0.9,2.4-2.2,2.5c-1.3,0.1-2.4-0.9-2.5-2.2c-0.1-1.3,0.9-2.4,2.2-2.5
						C39.8,22,40.9,23,41,24.3"/>
					<path class="st5" d="M33.6,28.7c-1,0.1-1.8-0.7-1.9-1.7c-0.1-1,0.7-1.8,1.7-1.9c1-0.1,1.8,0.7,1.9,1.7
						C35.4,27.8,34.6,28.7,33.6,28.7"/>
				</g>
			</g>
			<g>
				<path class="st5" d="M30.4,30.7c-0.5,0-1-0.4-1-0.9c0-0.5,0.4-1,0.9-1c0.5,0,1,0.4,1,0.9C31.3,30.3,30.9,30.7,30.4,30.7"/>
			</g>
		</g>
		<ellipse transform="matrix(0.7974 -0.6034 0.6034 0.7974 -15.5276 22.683)" class="st6" cx="26" cy="34.5" rx="3.5" ry="3.5"/>
		<g>
			<path class="st4" d="M36.3,50.7c0.7,0.7,1.8,0.6,2.5-0.1c0.7-0.7,0.6-1.8-0.1-2.5c-0.7-0.7-1.8-0.6-2.5,0.1
				C35.5,48.9,35.5,50,36.3,50.7"/>
			<path class="st4" d="M33.2,42.8c-0.9,1-0.8,2.5,0.2,3.4c1,0.9,2.5,0.8,3.4-0.2c0.9-1,0.8-2.5-0.2-3.4
				C35.6,41.7,34.1,41.8,33.2,42.8"/>
			<path class="st4" d="M37.6,54.2c0.4,0.4,1,0.3,1.4-0.1c0.4-0.4,0.3-1-0.1-1.4c-0.4-0.4-1-0.3-1.4,0.1
				C37.1,53.2,37.2,53.8,37.6,54.2"/>
			<path class="st4" d="M37.9,57.2c0.2,0.2,0.6,0.2,0.8,0c0.2-0.2,0.2-0.6,0-0.8c-0.2-0.2-0.6-0.2-0.8,0
				C37.7,56.6,37.7,57,37.9,57.2"/>
		</g>
		<g>
			<g>
				<path class="st5" d="M24.4,60.3c-1.7-0.9-2.4-2.9-1.6-4.7c0.9-1.7,2.9-2.4,4.7-1.6c1.7,0.9,2.4,2.9,1.6,4.7
					C28.2,60.5,26.1,61.2,24.4,60.3"/>
				<path class="st5" d="M27.4,52.5c-1.2-0.6-1.7-2-1.1-3.2c0.6-1.2,2-1.7,3.2-1.1c1.2,0.6,1.7,2,1.1,3.2
					C30,52.6,28.5,53.1,27.4,52.5"/>
				<path class="st5" d="M27.2,43.9c0.4-0.9,1.5-1.2,2.4-0.8c0.9,0.4,1.2,1.5,0.8,2.4c-0.4,0.9-1.5,1.2-2.4,0.8
					C27.1,45.9,26.7,44.8,27.2,43.9"/>
			</g>
			<g>
				<path class="st5" d="M17.6,68.5c-2.2-1.1-3.1-3.8-2-6c1.1-2.2,3.8-3.1,6-2c2.2,1.1,3.1,3.8,2,6C22.5,68.7,19.8,69.6,17.6,68.5"
					/>
			</g>
		</g>
		<g>
			<path class="st4" d="M45.2,33.7c0.9-0.3,1.4-1.3,1.1-2.2C46,30.5,45,30,44.1,30.3c-0.9,0.3-1.4,1.3-1.1,2.2
				C43.2,33.5,44.2,34,45.2,33.7"/>
			<path class="st4" d="M36.8,32.4c0.4,1.2,1.8,1.9,3,1.5c1.2-0.4,1.9-1.8,1.5-3c-0.4-1.2-1.8-1.9-3-1.5
				C37.1,29.8,36.4,31.2,36.8,32.4"/>
			<path class="st4" d="M48.9,34.3c0.5-0.2,0.8-0.7,0.6-1.3c-0.2-0.5-0.7-0.8-1.3-0.6c-0.5,0.2-0.8,0.7-0.6,1.3
				C47.8,34.2,48.4,34.5,48.9,34.3"/>
			<path class="st4" d="M51.7,35.5c0.3-0.1,0.5-0.4,0.4-0.7c-0.1-0.3-0.4-0.5-0.7-0.4c-0.3,0.1-0.5,0.4-0.4,0.7
				C51,35.4,51.3,35.6,51.7,35.5"/>
		</g>
		<g>
			<path class="st5" d="M27.1,40.1c0.2-0.5,0.8-0.7,1.3-0.4c0.5,0.2,0.7,0.8,0.4,1.3c-0.2,0.5-0.8,0.7-1.3,0.4
				C27,41.1,26.9,40.6,27.1,40.1"/>
		</g>
		<g>
			<g>
				<path class="st5" d="M47.6,48.8c-1.6,1.1-3.8,0.6-4.8-1c-1.1-1.6-0.6-3.8,1-4.8c1.6-1.1,3.8-0.6,4.8,1
					C49.6,45.6,49.2,47.7,47.6,48.8"/>
				<path class="st5" d="M42.3,42.3c-1.1,0.7-2.6,0.4-3.3-0.7c-0.7-1.1-0.4-2.6,0.7-3.3c1.1-0.7,2.6-0.4,3.3,0.7
					C43.7,40.1,43.4,41.6,42.3,42.3"/>
				<path class="st5" d="M34.8,38.2c-0.5-0.8-0.3-1.9,0.5-2.5c0.8-0.5,1.9-0.3,2.5,0.5c0.5,0.8,0.3,1.9-0.5,2.5
					C36.5,39.2,35.4,39,34.8,38.2"/>
			</g>
		</g>
		<g>
			<path class="st5" d="M31.4,36.4c-0.3-0.4-0.2-1,0.3-1.3c0.4-0.3,1-0.2,1.3,0.3c0.3,0.4,0.2,1-0.3,1.3
				C32.3,36.9,31.7,36.8,31.4,36.4"/>
		</g>
	</g>
</g>
</svg>
