<?xml version="1.0" encoding="utf-8"?>
<!-- Generator: Adobe Illustrator 20.0.0, SVG Export Plug-In . SVG Version: 6.00 Build 0)  -->
<svg version="1.1" id="Layer_1" xmlns="http://www.w3.org/2000/svg" xmlns:xlink="http://www.w3.org/1999/xlink" x="0px" y="0px"
	 viewBox="0 0 504.5 134" style="enable-background:new 0 0 504.5 134;" xml:space="preserve">
<style type="text/css">
	.st0{fill:none;}
	.st1{fill:#231F20;}
	.st2{enable-background:new    ;}
	.st3{fill:url(#SVGID_1_);}
	.st4{font-family:'NexaBold';}
	.st5{font-size:40.4533px;}
	.st6{fill:url(#SVGID_2_);}
	.st7{fill:#EC6629;}
	.st8{fill:#2A65AF;}
	.st9{fill:#E4168D;}
</style>
<pattern  y="134" width="33.3" height="33.3" patternUnits="userSpaceOnUse" id="New_Pattern_Swatch_1" viewBox="0 -33.3 33.3 33.3" style="overflow:visible;">
	<g>
		<rect y="-33.3" class="st0" width="33.3" height="33.3"/>
		<g>
			<rect x="0" y="-33.3" class="st1" width="33.3" height="33.3"/>
		</g>
	</g>
</pattern>
<g>
	<text transform="matrix(1 0 0 1 98.106 81.7644)" class="st2">	<pattern  id="SVGID_1_" xlink:href="#New_Pattern_Swatch_1" patternTransform="matrix(1 0 0 1 0 22)"  class="st2">
	</pattern>
<tspan x="0" y="0" class="st3 st4 st5">S</tspan>	<pattern  id="SVGID_2_" xlink:href="#New_Pattern_Swatch_1" patternTransform="matrix(1 0 0 1 0 22)"  class="st2">
	</pattern>
<tspan x="25.9" y="0" class="st6 st4 st5">ingularityU</tspan></text>
	<g>
		<g>
			<g>
				<path class="st7" d="M49.8,84.8c-0.2,1,0.4,2,1.4,2.2c1,0.2,2-0.4,2.2-1.4c0.2-1-0.4-2-1.4-2.2C51,83.2,50,83.8,49.8,84.8"/>
				<path class="st7" d="M55.3,77.9c-1.3-0.3-2.7,0.6-3,1.9c-0.3,1.3,0.6,2.7,1.9,3c1.3,0.3,2.7-0.6,3-1.9
					C57.6,79.5,56.7,78.2,55.3,77.9"/>
				<path class="st7" d="M47.3,87.8c-0.1,0.6,0.2,1.1,0.8,1.2c0.6,0.1,1.1-0.2,1.2-0.8c0.1-0.6-0.2-1.1-0.8-1.2
					C47.9,86.9,47.4,87.3,47.3,87.8"/>
				<path class="st7" d="M44.7,89.8c-0.1,0.3,0.1,0.7,0.5,0.7c0.3,0.1,0.7-0.1,0.7-0.5c0.1-0.3-0.1-0.7-0.5-0.7S44.8,89.4,44.7,89.8
					"/>
			</g>
			<g>
				<g>
					<path class="st8" d="M34.8,79.1c-0.1-2,1.4-3.7,3.4-3.9c2-0.1,3.7,1.4,3.9,3.4c0.1,2-1.4,3.7-3.4,3.9
						C36.6,82.6,34.9,81.1,34.8,79.1"/>
					<path class="st8" d="M43.4,77.7c-0.1-1.4,1-2.6,2.3-2.6c1.4-0.1,2.6,1,2.6,2.3c0.1,1.4-1,2.6-2.3,2.6
						C44.7,80.1,43.5,79.1,43.4,77.7"/>
					<path class="st8" d="M51.1,73c1-0.1,1.9,0.7,2,1.7c0.1,1-0.7,1.9-1.7,2c-1,0.1-1.9-0.7-2-1.7C49.3,74,50.1,73.1,51.1,73"/>
				</g>
			</g>
			<g>
				<path class="st8" d="M54.6,70.9c0.5,0,1,0.4,1,0.9c0,0.5-0.4,1-0.9,1c-0.5,0-1-0.4-1-0.9C53.6,71.4,54,71,54.6,70.9"/>
			</g>
		</g>
		<g>
			<g>
				<path class="st7" d="M39,67.8c-1,0.3-1.5,1.4-1.2,2.3c0.3,1,1.4,1.5,2.3,1.2c1-0.3,1.5-1.4,1.2-2.3C41,68,40,67.5,39,67.8"/>
				<path class="st7" d="M47.8,69.1c-0.4-1.3-1.8-2-3.2-1.6c-1.3,0.4-2,1.8-1.6,3.2c0.4,1.3,1.8,2,3.2,1.6
					C47.5,71.9,48.2,70.5,47.8,69.1"/>
				<path class="st7" d="M35.1,67.1c-0.6,0.2-0.9,0.8-0.7,1.3c0.2,0.6,0.8,0.9,1.3,0.7c0.6-0.2,0.9-0.8,0.7-1.3
					C36.3,67.2,35.7,66.9,35.1,67.1"/>
				<path class="st7" d="M32.2,65.9c-0.3,0.1-0.5,0.5-0.4,0.8c0.1,0.3,0.5,0.5,0.8,0.4c0.3-0.1,0.5-0.5,0.4-0.8S32.5,65.8,32.2,65.9
					"/>
			</g>
			<g>
				<g>
					<path class="st8" d="M36.5,51.9c1.7-1.1,4-0.7,5.1,1c1.1,1.7,0.7,4-1,5.1c-1.7,1.1-4,0.7-5.1-1C34.3,55.3,34.8,53.1,36.5,51.9"
						/>
					<path class="st8" d="M42,58.7c1.2-0.8,2.7-0.4,3.5,0.7c0.8,1.2,0.4,2.7-0.7,3.5c-1.1,0.8-2.7,0.4-3.5-0.7
						C40.5,61,40.8,59.5,42,58.7"/>
					<path class="st8" d="M49.9,63c0.6,0.9,0.3,2-0.5,2.6c-0.9,0.6-2,0.3-2.6-0.5c-0.6-0.9-0.3-2,0.5-2.6C48.2,62,49.3,62.2,49.9,63
						"/>
				</g>
			</g>
			<g>
				<path class="st8" d="M53.4,65c0.3,0.5,0.2,1.1-0.3,1.4c-0.5,0.3-1.1,0.2-1.4-0.3c-0.3-0.5-0.2-1.1,0.3-1.4
					C52.5,64.4,53.1,64.5,53.4,65"/>
			</g>
		</g>
		<g>
			<g>
				<path class="st7" d="M48.4,50c-0.8-0.7-1.9-0.6-2.6,0.1c-0.7,0.8-0.6,1.9,0.1,2.6c0.8,0.7,1.9,0.6,2.6-0.1
					C49.2,51.9,49.1,50.7,48.4,50"/>
				<path class="st7" d="M51.6,58.3c0.9-1,0.8-2.6-0.2-3.5c-1-0.9-2.6-0.8-3.5,0.2c-0.9,1-0.8,2.6,0.2,3.5
					C49.1,59.4,50.7,59.3,51.6,58.3"/>
				<path class="st7" d="M47,46.3c-0.4-0.4-1.1-0.4-1.5,0.1c-0.4,0.4-0.4,1.1,0.1,1.5c0.4,0.4,1.1,0.4,1.5-0.1
					C47.5,47.4,47.4,46.7,47,46.3"/>
				<path class="st7" d="M46.6,43.2c-0.3-0.2-0.6-0.2-0.9,0c-0.2,0.3-0.2,0.6,0,0.9c0.3,0.2,0.6,0.2,0.9,0
					C46.9,43.8,46.9,43.4,46.6,43.2"/>
			</g>
			<g>
				<g>
					<path class="st8" d="M60.8,39.9c1.8,0.9,2.5,3.1,1.6,4.9c-0.9,1.8-3.1,2.5-4.9,1.6c-1.8-0.9-2.5-3.1-1.6-4.9
						C56.8,39.7,59,39,60.8,39.9"/>
					<path class="st8" d="M57.7,48c1.2,0.6,1.7,2.1,1.1,3.3c-0.6,1.2-2.1,1.7-3.3,1.1c-1.2-0.6-1.7-2.1-1.1-3.3
						C55,47.9,56.5,47.4,57.7,48"/>
					<path class="st8" d="M57.9,57c-0.5,0.9-1.6,1.3-2.5,0.8c-0.9-0.5-1.3-1.6-0.8-2.5c0.5-0.9,1.6-1.3,2.5-0.8
						C58,55,58.4,56.1,57.9,57"/>
				</g>
				<g>
					<path class="st8" d="M67.9,31.3c2.3,1.2,3.3,4,2.1,6.3c-1.2,2.3-4,3.3-6.3,2.1c-2.3-1.2-3.3-4-2.1-6.3
						C62.8,31.1,65.6,30.1,67.9,31.3"/>
				</g>
			</g>
			<g>
				<path class="st8" d="M58,61.1c-0.2,0.5-0.8,0.7-1.3,0.4c-0.5-0.2-0.7-0.8-0.4-1.3c0.2-0.5,0.8-0.7,1.3-0.4
					C58,60,58.2,60.6,58,61.1"/>
			</g>
		</g>
		<g>
			<g>
				<path class="st7" d="M68.5,49.2c0.2-1-0.4-2-1.4-2.2c-1-0.2-2,0.4-2.2,1.4c-0.2,1,0.4,2,1.4,2.2C67.3,50.8,68.2,50.2,68.5,49.2"
					/>
				<path class="st7" d="M62.9,56.1c1.3,0.3,2.7-0.6,3-1.9c0.3-1.3-0.6-2.7-1.9-3c-1.3-0.3-2.7,0.6-3,1.9
					C60.7,54.5,61.6,55.8,62.9,56.1"/>
				<path class="st7" d="M71,46.1c0.1-0.6-0.2-1.1-0.8-1.2c-0.6-0.1-1.1,0.2-1.2,0.8c-0.1,0.6,0.2,1.1,0.8,1.2
					C70.3,47.1,70.8,46.7,71,46.1"/>
				<path class="st7" d="M73.5,44.2c0.1-0.3-0.1-0.7-0.5-0.7c-0.3-0.1-0.7,0.1-0.7,0.5c-0.1,0.3,0.1,0.7,0.5,0.7
					C73.1,44.8,73.4,44.6,73.5,44.2"/>
			</g>
			<g>
				<g>
					<path class="st8" d="M83.4,54.9c0.1,2-1.4,3.7-3.4,3.9c-2,0.1-3.7-1.4-3.9-3.4c-0.1-2,1.4-3.7,3.4-3.9
						C81.6,51.4,83.3,52.9,83.4,54.9"/>
					<path class="st8" d="M74.8,56.3c0.1,1.4-1,2.6-2.3,2.6c-1.4,0.1-2.6-1-2.6-2.3c-0.1-1.4,1-2.6,2.3-2.6
						C73.6,53.9,74.7,54.9,74.8,56.3"/>
					<path class="st8" d="M67.1,61c-1,0.1-1.9-0.7-2-1.7c-0.1-1,0.7-1.9,1.7-2c1-0.1,1.9,0.7,2,1.7C68.9,60,68.1,60.9,67.1,61"/>
				</g>
			</g>
			<g>
				<path class="st8" d="M63.7,63.1c-0.5,0-1-0.4-1-0.9c0-0.5,0.4-1,0.9-1c0.5,0,1,0.4,1,0.9C64.6,62.6,64.2,63,63.7,63.1"/>
			</g>
		</g>
		<ellipse transform="matrix(0.7974 -0.6034 0.6034 0.7974 -28.4511 49.2346)" class="st9" cx="59.1" cy="67" rx="3.7" ry="3.7"/>
		<g>
			<path class="st7" d="M69.9,84c0.8,0.7,1.9,0.6,2.6-0.1c0.7-0.8,0.6-1.9-0.1-2.6c-0.8-0.7-1.9-0.6-2.6,0.1
				C69,82.1,69.1,83.3,69.9,84"/>
			<path class="st7" d="M66.7,75.7c-0.9,1-0.8,2.6,0.2,3.5c1,0.9,2.6,0.8,3.5-0.2c0.9-1,0.8-2.6-0.2-3.5
				C69.2,74.6,67.6,74.7,66.7,75.7"/>
			<path class="st7" d="M71.2,87.7c0.4,0.4,1.1,0.4,1.5-0.1c0.4-0.4,0.4-1.1-0.1-1.5c-0.4-0.4-1.1-0.4-1.5,0.1
				C70.8,86.6,70.8,87.3,71.2,87.7"/>
			<path class="st7" d="M71.6,90.8c0.3,0.2,0.6,0.2,0.9,0c0.2-0.3,0.2-0.6,0-0.9c-0.3-0.2-0.6-0.2-0.9,0
				C71.3,90.2,71.4,90.6,71.6,90.8"/>
		</g>
		<g>
			<g>
				<path class="st8" d="M57.4,94.1c-1.8-0.9-2.5-3.1-1.6-4.9c0.9-1.8,3.1-2.5,4.9-1.6c1.8,0.9,2.5,3.1,1.6,4.9
					C61.4,94.3,59.2,95,57.4,94.1"/>
				<path class="st8" d="M60.5,86c-1.2-0.6-1.7-2.1-1.1-3.3c0.6-1.2,2.1-1.7,3.3-1.1c1.2,0.6,1.7,2.1,1.1,3.3
					C63.3,86.1,61.8,86.6,60.5,86"/>
				<path class="st8" d="M60.3,76.9c0.5-0.9,1.6-1.3,2.5-0.8c0.9,0.5,1.3,1.6,0.8,2.5c-0.5,0.9-1.6,1.3-2.5,0.8
					C60.2,79,59.9,77.9,60.3,76.9"/>
			</g>
			<g>
				<path class="st8" d="M50.3,102.7c-2.3-1.2-3.3-4-2.1-6.3c1.2-2.3,4-3.3,6.3-2.1c2.3,1.2,3.3,4,2.1,6.3
					C55.4,102.9,52.6,103.9,50.3,102.7"/>
			</g>
		</g>
		<g>
			<path class="st7" d="M79.2,66.2c1-0.3,1.5-1.4,1.2-2.3c-0.3-1-1.4-1.5-2.3-1.2c-1,0.3-1.5,1.4-1.2,2.3
				C77.2,66,78.2,66.5,79.2,66.2"/>
			<path class="st7" d="M70.5,64.8c0.4,1.3,1.8,2,3.2,1.6c1.3-0.4,2-1.8,1.6-3.2c-0.4-1.3-1.8-2-3.2-1.6
				C70.7,62.1,70,63.5,70.5,64.8"/>
			<path class="st7" d="M83.1,66.8c0.6-0.2,0.9-0.8,0.7-1.3c-0.2-0.6-0.8-0.9-1.3-0.7c-0.6,0.2-0.9,0.8-0.7,1.3
				C82,66.7,82.6,67,83.1,66.8"/>
			<path class="st7" d="M86,68.1c0.3-0.1,0.5-0.5,0.4-0.8c-0.1-0.3-0.5-0.5-0.8-0.4c-0.3,0.1-0.5,0.5-0.4,0.8
				C85.3,68,85.7,68.2,86,68.1"/>
		</g>
		<g>
			<path class="st8" d="M60.2,72.9c0.2-0.5,0.8-0.7,1.3-0.4c0.5,0.2,0.7,0.8,0.4,1.3c-0.2,0.5-0.8,0.7-1.3,0.4
				C60.2,74,60,73.4,60.2,72.9"/>
		</g>
		<g>
			<g>
				<path class="st8" d="M81.8,82c-1.7,1.1-4,0.7-5.1-1c-1.1-1.7-0.7-4,1-5.1c1.7-1.1,4-0.7,5.1,1C83.9,78.7,83.4,80.9,81.8,82"/>
				<path class="st8" d="M76.3,75.2c-1.2,0.8-2.7,0.4-3.5-0.7c-0.8-1.2-0.4-2.7,0.7-3.5c1.1-0.8,2.7-0.4,3.5,0.7
					C77.7,72.9,77.4,74.5,76.3,75.2"/>
				<path class="st8" d="M68.3,70.9c-0.6-0.9-0.3-2,0.5-2.6c0.9-0.6,2-0.3,2.6,0.5c0.6,0.9,0.3,2-0.5,2.6
					C70.1,72,68.9,71.8,68.3,70.9"/>
			</g>
		</g>
		<g>
			<path class="st8" d="M64.8,69c-0.3-0.5-0.2-1.1,0.3-1.4c0.5-0.3,1.1-0.2,1.4,0.3c0.3,0.5,0.2,1.1-0.3,1.4
				C65.7,69.6,65.1,69.4,64.8,69"/>
		</g>
	</g>
</g>
</svg>
