<?xml version="1.0" encoding="utf-8"?>
<!-- Generator: Adobe Illustrator 20.0.0, SVG Export Plug-In . SVG Version: 6.00 Build 0)  -->
<svg version="1.1" id="Layer_1" xmlns="http://www.w3.org/2000/svg" xmlns:xlink="http://www.w3.org/1999/xlink" x="0px" y="0px"
	 viewBox="0 0 424.9 206.9" style="enable-background:new 0 0 424.9 206.9;" xml:space="preserve">
<style type="text/css">
	.st0{enable-background:new    ;}
	.st1{font-family:'NexaBold';}
	.st2{font-size:38px;}
	.st3{fill:#EC6629;}
	.st4{fill:#2A65AF;}
	.st5{fill:#E4168D;}
</style>
<g>
	<g>
		<g>
			<g>
				<g>
					<text transform="matrix(1 0 0 1 168.2102 70.8229)" class="st0"><tspan x="0" y="0" class="st1 st2">S</tspan><tspan x="24.4" y="0" class="st1 st2">ingularityU</tspan></text>
				</g>
			</g>
		</g>
	</g>
	<g>
		<g>
			<g>
				<path class="st3" d="M71.2,139.3c-0.4,2,0.9,4,2.9,4.4c2,0.4,4-0.9,4.4-2.9c0.4-2-0.9-4-2.9-4.4C73.6,136,71.7,137.3,71.2,139.3
					"/>
				<path class="st3" d="M82.4,125.4c-2.7-0.6-5.4,1.2-5.9,3.9c-0.6,2.7,1.2,5.4,3.9,5.9c2.7,0.6,5.4-1.2,5.9-3.9
					C86.9,128.6,85.1,126,82.4,125.4"/>
				<path class="st3" d="M66.2,145.4c-0.2,1.1,0.5,2.3,1.6,2.5c1.1,0.2,2.3-0.5,2.5-1.6c0.2-1.1-0.5-2.3-1.6-2.5
					C67.5,143.5,66.4,144.3,66.2,145.4"/>
				<path class="st3" d="M61.1,149.2c-0.1,0.7,0.3,1.3,1,1.5c0.7,0.1,1.3-0.3,1.5-1c0.1-0.7-0.3-1.3-1-1.5
					C61.9,148.1,61.2,148.6,61.1,149.2"/>
			</g>
			<g>
				<g>
					<path class="st4" d="M41.1,127.8c-0.2-4.1,2.8-7.5,6.9-7.8c4.1-0.2,7.5,2.8,7.8,6.9c0.2,4.1-2.8,7.5-6.9,7.8
						C44.8,134.9,41.3,131.8,41.1,127.8"/>
					<path class="st4" d="M58.4,125c-0.2-2.8,1.9-5.2,4.7-5.3c2.8-0.2,5.2,1.9,5.3,4.7c0.2,2.8-1.9,5.2-4.7,5.3
						C61,129.9,58.6,127.8,58.4,125"/>
					<path class="st4" d="M73.9,115.6c2.1-0.1,3.8,1.4,4,3.5c0.1,2.1-1.4,3.8-3.5,4c-2.1,0.1-3.8-1.4-4-3.5
						C70.3,117.5,71.9,115.7,73.9,115.6"/>
				</g>
			</g>
			<g>
				<path class="st4" d="M80.9,111.3c1.1-0.1,2,0.8,2.1,1.9c0.1,1.1-0.8,2-1.9,2.1c-1.1,0.1-2-0.8-2.1-1.9
					C79,112.3,79.8,111.4,80.9,111.3"/>
			</g>
		</g>
		<g>
			<g>
				<path class="st3" d="M49.6,105c-2,0.6-3,2.8-2.4,4.7c0.6,2,2.8,3,4.7,2.4c2-0.6,3-2.8,2.4-4.7C53.6,105.4,51.5,104.4,49.6,105"
					/>
				<path class="st3" d="M67.2,107.7c-0.9-2.6-3.7-4.1-6.3-3.2c-2.6,0.9-4.1,3.7-3.2,6.3c0.9,2.6,3.7,4.1,6.3,3.2
					C66.6,113.2,68,110.4,67.2,107.7"/>
				<path class="st3" d="M41.7,103.7c-1.1,0.4-1.7,1.6-1.4,2.7c0.4,1.1,1.6,1.7,2.7,1.4c1.1-0.4,1.7-1.6,1.4-2.7
					C44,103.9,42.8,103.3,41.7,103.7"/>
				<path class="st3" d="M35.9,101.2c-0.7,0.2-1,0.9-0.8,1.6c0.2,0.7,0.9,1,1.6,0.8c0.7-0.2,1-0.9,0.8-1.6
					C37.2,101.3,36.5,101,35.9,101.2"/>
			</g>
			<g>
				<g>
					<path class="st4" d="M44.4,73.1c3.4-2.2,8-1.3,10.2,2.1c2.2,3.4,1.3,8-2.1,10.2c-3.4,2.2-8,1.3-10.2-2.1
						C40.1,79.9,41.1,75.4,44.4,73.1"/>
					<path class="st4" d="M55.5,86.8c2.3-1.5,5.4-0.9,7,1.4c1.5,2.3,0.9,5.4-1.4,7c-2.3,1.5-5.4,0.9-7-1.4
						C52.6,91.4,53.2,88.3,55.5,86.8"/>
					<path class="st4" d="M71.4,95.5c1.1,1.7,0.7,4-1.1,5.2c-1.7,1.1-4,0.7-5.2-1.1c-1.1-1.7-0.7-4,1.1-5.2
						C68,93.3,70.3,93.8,71.4,95.5"/>
				</g>
			</g>
			<g>
				<path class="st4" d="M78.6,99.4c0.6,0.9,0.4,2.1-0.6,2.7c-0.9,0.6-2.1,0.4-2.7-0.6c-0.6-0.9-0.4-2.1,0.6-2.7
					C76.8,98.2,78,98.5,78.6,99.4"/>
			</g>
		</g>
		<g>
			<g>
				<path class="st3" d="M68.4,69.2c-1.5-1.4-3.9-1.2-5.3,0.3c-1.4,1.5-1.2,3.9,0.3,5.3c1.5,1.4,3.9,1.2,5.3-0.3
					C70.1,73,69.9,70.6,68.4,69.2"/>
				<path class="st3" d="M74.8,85.8c1.9-2.1,1.7-5.2-0.4-7.1c-2.1-1.9-5.2-1.7-7.1,0.4c-1.9,2.1-1.7,5.2,0.4,7.1
					C69.8,88.1,73,87.9,74.8,85.8"/>
				<path class="st3" d="M65.6,61.8c-0.9-0.8-2.2-0.7-3,0.2c-0.8,0.9-0.7,2.2,0.2,3c0.9,0.8,2.2,0.7,3-0.2
					C66.6,63.9,66.5,62.6,65.6,61.8"/>
				<path class="st3" d="M64.9,55.4c-0.5-0.5-1.3-0.4-1.8,0.1c-0.5,0.5-0.4,1.3,0.1,1.8c0.5,0.5,1.3,0.4,1.8-0.1
					C65.4,56.7,65.4,55.9,64.9,55.4"/>
			</g>
			<g>
				<g>
					<path class="st4" d="M93.5,48.8c3.6,1.8,5.1,6.2,3.3,9.9c-1.8,3.6-6.2,5.1-9.9,3.3c-3.6-1.8-5.1-6.2-3.3-9.9
						C85.4,48.5,89.8,47,93.5,48.8"/>
					<path class="st4" d="M87.2,65.3c2.5,1.2,3.5,4.3,2.3,6.7c-1.2,2.5-4.3,3.5-6.7,2.3c-2.5-1.2-3.5-4.3-2.3-6.7
						C81.7,65,84.7,64,87.2,65.3"/>
					<path class="st4" d="M87.6,83.4c-0.9,1.8-3.2,2.6-5,1.7c-1.9-0.9-2.6-3.2-1.7-5c0.9-1.8,3.2-2.6,5-1.7
						C87.8,79.3,88.5,81.6,87.6,83.4"/>
				</g>
				<g>
					<path class="st4" d="M107.8,31.6c4.7,2.3,6.6,8,4.2,12.7c-2.3,4.7-8,6.6-12.7,4.2c-4.7-2.3-6.6-8-4.2-12.7
						C97.4,31.1,103.1,29.2,107.8,31.6"/>
				</g>
			</g>
			<g>
				<path class="st4" d="M87.8,91.6c-0.5,1-1.7,1.4-2.7,0.9c-1-0.5-1.4-1.7-0.9-2.7c0.5-1,1.7-1.4,2.7-0.9
					C87.9,89.4,88.3,90.6,87.8,91.6"/>
			</g>
		</g>
		<g>
			<g>
				<path class="st3" d="M108.8,67.6c0.4-2-0.9-4-2.9-4.4c-2-0.4-4,0.9-4.4,2.9c-0.4,2,0.9,4,2.9,4.4
					C106.4,70.9,108.4,69.6,108.8,67.6"/>
				<path class="st3" d="M97.6,81.5c2.7,0.6,5.4-1.2,5.9-3.9c0.6-2.7-1.2-5.4-3.9-5.9c-2.7-0.6-5.4,1.2-5.9,3.9
					C93.2,78.2,94.9,80.9,97.6,81.5"/>
				<path class="st3" d="M113.9,61.5c0.2-1.1-0.5-2.3-1.6-2.5c-1.1-0.2-2.3,0.5-2.5,1.6c-0.2,1.1,0.5,2.3,1.6,2.5
					C112.5,63.3,113.6,62.6,113.9,61.5"/>
				<path class="st3" d="M119,57.6c0.1-0.7-0.3-1.3-1-1.5c-0.7-0.1-1.3,0.3-1.5,1c-0.1,0.7,0.3,1.3,1,1.5
					C118.2,58.7,118.8,58.3,119,57.6"/>
			</g>
			<g>
				<g>
					<path class="st4" d="M139,79.1c0.2,4.1-2.8,7.5-6.9,7.8c-4.1,0.2-7.5-2.8-7.8-6.9c-0.2-4.1,2.8-7.5,6.9-7.8
						C135.3,71.9,138.8,75,139,79.1"/>
					<path class="st4" d="M121.6,81.9c0.2,2.8-1.9,5.2-4.7,5.3c-2.8,0.2-5.2-1.9-5.3-4.7c-0.2-2.8,1.9-5.2,4.7-5.3
						C119.1,77,121.5,79.1,121.6,81.9"/>
					<path class="st4" d="M106.1,91.3c-2.1,0.1-3.8-1.4-4-3.5c-0.1-2.1,1.4-3.8,3.5-4c2.1-0.1,3.8,1.4,4,3.5
						C109.8,89.4,108.2,91.2,106.1,91.3"/>
				</g>
			</g>
			<g>
				<path class="st4" d="M99.2,95.5c-1.1,0.1-2-0.8-2.1-1.9c-0.1-1.1,0.8-2,1.9-2.1c1.1-0.1,2,0.8,2.1,1.9
					C101.1,94.5,100.3,95.5,99.2,95.5"/>
			</g>
		</g>
		<ellipse transform="matrix(0.7974 -0.6034 0.6034 0.7974 -44.1751 75.2596)" class="st5" cx="90" cy="103.4" rx="7.4" ry="7.4"/>
		<g>
			<path class="st3" d="M111.7,137.6c1.5,1.4,3.9,1.2,5.3-0.3c1.4-1.5,1.2-3.9-0.3-5.3c-1.5-1.4-3.9-1.2-5.3,0.3
				C110,133.9,110.1,136.3,111.7,137.6"/>
			<path class="st3" d="M105.2,121c-1.9,2.1-1.7,5.2,0.4,7.1c2.1,1.9,5.2,1.7,7.1-0.4c1.9-2.1,1.7-5.2-0.4-7.1
				C110.3,118.8,107.1,118.9,105.2,121"/>
			<path class="st3" d="M114.4,145.1c0.9,0.8,2.2,0.7,3-0.2c0.8-0.9,0.7-2.2-0.2-3c-0.9-0.8-2.2-0.7-3,0.2
				C113.5,143,113.6,144.3,114.4,145.1"/>
			<path class="st3" d="M115.2,151.4c0.5,0.5,1.3,0.4,1.8-0.1c0.5-0.5,0.4-1.3-0.1-1.8c-0.5-0.5-1.3-0.4-1.8,0.1
				C114.6,150.2,114.7,150.9,115.2,151.4"/>
		</g>
		<g>
			<g>
				<path class="st4" d="M86.6,158c-3.6-1.8-5.1-6.2-3.3-9.9c1.8-3.6,6.2-5.1,9.9-3.3c3.6,1.8,5.1,6.2,3.3,9.9
					C94.6,158.4,90.2,159.8,86.6,158"/>
				<path class="st4" d="M92.9,141.6c-2.5-1.2-3.5-4.3-2.3-6.7c1.2-2.5,4.3-3.5,6.7-2.3c2.5,1.2,3.5,4.3,2.3,6.7
					C98.4,141.8,95.4,142.8,92.9,141.6"/>
				<path class="st4" d="M92.5,123.5c0.9-1.8,3.2-2.6,5-1.7c1.9,0.9,2.6,3.2,1.7,5c-0.9,1.8-3.2,2.6-5,1.7
					C92.3,127.6,91.5,125.3,92.5,123.5"/>
			</g>
			<g>
				<path class="st4" d="M72.3,175.3c-4.7-2.3-6.6-8-4.2-12.7c2.3-4.7,8-6.6,12.7-4.2c4.7,2.3,6.6,8,4.2,12.7
					C82.6,175.7,76.9,177.6,72.3,175.3"/>
			</g>
		</g>
		<g>
			<path class="st3" d="M130.5,101.8c2-0.6,3-2.8,2.4-4.7c-0.6-2-2.8-3-4.7-2.4c-2,0.6-3,2.8-2.4,4.7
				C126.4,101.4,128.5,102.4,130.5,101.8"/>
			<path class="st3" d="M112.9,99.1c0.9,2.6,3.7,4.1,6.3,3.2c2.6-0.9,4.1-3.7,3.2-6.3c-0.9-2.6-3.7-4.1-6.3-3.2
				C113.4,93.6,112,96.4,112.9,99.1"/>
			<path class="st3" d="M138.3,103.1c1.1-0.4,1.7-1.6,1.4-2.7c-0.4-1.1-1.6-1.7-2.7-1.4c-1.1,0.4-1.7,1.6-1.4,2.7
				C136,102.9,137.2,103.5,138.3,103.1"/>
			<path class="st3" d="M144.2,105.6c0.7-0.2,1-0.9,0.8-1.6c-0.2-0.7-0.9-1-1.6-0.8c-0.7,0.2-1,0.9-0.8,1.6
				C142.8,105.5,143.5,105.8,144.2,105.6"/>
		</g>
		<g>
			<path class="st4" d="M92.3,115.3c0.5-1,1.7-1.4,2.7-0.9c1,0.5,1.4,1.7,0.9,2.7c-0.5,1-1.7,1.4-2.7,0.9
				C92.2,117.5,91.8,116.3,92.3,115.3"/>
		</g>
		<g>
			<g>
				<path class="st4" d="M135.6,133.7c-3.4,2.2-8,1.3-10.2-2.1c-2.2-3.4-1.3-8,2.1-10.2c3.4-2.2,8-1.3,10.2,2.1
					C139.9,126.9,139,131.5,135.6,133.7"/>
				<path class="st4" d="M124.5,120c-2.3,1.5-5.4,0.9-7-1.4c-1.5-2.3-0.9-5.4,1.4-7c2.3-1.5,5.4-0.9,7,1.4
					C127.5,115.4,126.8,118.5,124.5,120"/>
				<path class="st4" d="M108.6,111.3c-1.1-1.7-0.7-4,1.1-5.2c1.7-1.1,4-0.7,5.2,1.1c1.1,1.7,0.7,4-1.1,5.2
					C112.1,113.5,109.7,113.1,108.6,111.3"/>
			</g>
		</g>
		<g>
			<path class="st4" d="M101.5,107.4c-0.6-0.9-0.4-2.1,0.6-2.7c0.9-0.6,2.1-0.4,2.7,0.6c0.6,0.9,0.4,2.1-0.6,2.7
				C103.3,108.6,102.1,108.3,101.5,107.4"/>
		</g>
	</g>
</g>
</svg>
