<svg id="Layer_1" data-name="Layer 1" xmlns="http://www.w3.org/2000/svg" xmlns:xlink="http://www.w3.org/1999/xlink" viewBox="0 0 352.93 137.9"><defs><style>.cls-1{fill:none;}.cls-2{font-size:40.07px;font-family:Cooper Hewitt;}.cls-2,.cls-3{fill:#fff;}.cls-4{clip-path:url(#clip-path);}.cls-5{fill:#b66f7d;}.cls-6{fill:#ed974c;}.cls-7{fill:#ede251;}.cls-8{fill:#5eb5e2;}</style><clipPath id="clip-path" transform="translate(-34.43 -34.48)"><rect class="cls-1" x="34.47" y="35.58" width="116.17" height="136.8"/></clipPath></defs><title>logo 3 w</title><text class="cls-2" transform="translate(136.82 39.31)">SingularityU</text><g id="Layer_1-2" data-name="Layer 1"><path class="cls-3" d="M72.36,36.42a144.1,144.1,0,0,1,21.59-1.94c19.87,0,38.71,5.25,38.71,5.25l7.65,26-0.19,61.36s-16.24,28.4-28.26,36.83L48.07,90.69,54,47.82Z" transform="translate(-34.43 -34.48)"/><g class="cls-4"><path class="cls-5" d="M97.16,120.7c3.15,15.25,3.1,32.49-2.29,51.52-0.77.08-1.56,0.13-2.35,0.16a13.09,13.09,0,0,1-2.27-.13c-5.92-20.88-5.46-39.6-1.35-55.9,2.81,1.45,5.6,2.87,8.27,4.35" transform="translate(-34.43 -34.48)"/></g><g class="cls-4"><path class="cls-6" d="M90.25,172.25c-5.92-20.88-5.46-39.6-1.35-55.9-16.3-8.42-33.53-17.89-33.53-44.69a48.72,48.72,0,0,1,2.58-16.1c-7.83-7-14.55-11.33-17.68-12.81A115.73,115.73,0,0,0,66.62,159.07c10.58,10.36,19.6,12.68,23.63,13.18" transform="translate(-34.43 -34.48)"/></g><path class="cls-7" d="M94.87,172.22c12.75-1.32,22.58-10.11,22.58-23.9,0-14.29-9.08-21.42-20.29-27.62,3.15,15.25,3.1,32.49-2.29,51.52m45.25-45.1c-4.56-22.31-24.18-29.75-40.22-38a133.9,133.9,0,0,1,27.34-33.63,38.31,38.31,0,0,1,1.4,6.91l5.91-1.06q-0.69-5.5-1.18-11a69,69,0,0,1,11.44-7.58,115.41,115.41,0,0,1-4.69,84.37" transform="translate(-34.43 -34.48)"/><path class="cls-8" d="M132.66,39.73q0.24,5.28.72,10.59a68.93,68.93,0,0,1,11.43-7.58h0c-4.08-1.14-8.13-2.13-12.15-3M108.24,36q-2.83-.25-5.65-0.4c-16,.45-24.84,10.28-24.84,26.57,0,14,10.06,20.69,22.16,26.93a133.87,133.87,0,0,1,27.34-33.63c-2.85-9.49-9.4-17.53-19-19.47m-68,6.76a204,204,0,0,1,32.1-6.33A38.5,38.5,0,0,0,57.94,55.56c-7.82-7-14.55-11.34-17.68-12.81" transform="translate(-34.43 -34.48)"/></g></svg>