<svg id="Layer_1" data-name="Layer 1" xmlns="http://www.w3.org/2000/svg" xmlns:xlink="http://www.w3.org/1999/xlink" viewBox="0 0 291.16 68.94"><defs><style>.cls-1{fill:none;}.cls-2{font-size:40.07px;font-family:Cooper Hewitt;}.cls-2,.cls-3{fill:#fff;}.cls-4{clip-path:url(#clip-path);}.cls-5{fill:#b66f7d;}.cls-6{fill:#ed974c;}.cls-7{fill:#ede251;}.cls-8{fill:#5eb5e2;}</style><clipPath id="clip-path" transform="translate(-38.19 -32.31)"><rect class="cls-1" x="38.21" y="32.86" width="58.08" height="68.39"/></clipPath></defs><title>file 1 w</title><text class="cls-2" transform="translate(75.06 52.15)">SingularityU</text><path class="cls-3" d="M57.15,33.28a72.11,72.11,0,0,1,10.79-1A82,82,0,0,1,87.3,34.93l3.83,13L91,78.62S82.91,92.81,76.91,97L45,60.41,48,39Z" transform="translate(-38.19 -32.31)"/><g class="cls-4"><path class="cls-5" d="M69.56,75.41a53.58,53.58,0,0,1-1.15,25.76c-0.39,0-.78.07-1.17,0.08a6.77,6.77,0,0,1-1.14-.07,53.29,53.29,0,0,1-.68-27.95c1.41,0.72,2.8,1.44,4.13,2.17" transform="translate(-38.19 -32.31)"/></g><g class="cls-4"><path class="cls-6" d="M66.1,101.18a53.28,53.28,0,0,1-.68-27.94C57.27,69,48.66,64.3,48.66,50.89a24.34,24.34,0,0,1,1.29-8,44,44,0,0,0-8.84-6.4A57.86,57.86,0,0,0,54.28,94.6c5.29,5.18,9.8,6.34,11.82,6.59" transform="translate(-38.19 -32.31)"/></g><path class="cls-7" d="M68.41,101.17c6.38-.66,11.29-5.05,11.29-11.95,0-7.15-4.54-10.71-10.14-13.81a53.58,53.58,0,0,1-1.15,25.76M91,78.62c-2.28-11.16-12.09-14.87-20.11-19A67,67,0,0,1,84.6,42.79a19.14,19.14,0,0,1,.7,3.45l3-.53c-0.23-1.83-.43-3.66-0.59-5.49a34.45,34.45,0,0,1,5.72-3.79A57.7,57.7,0,0,1,91,78.62" transform="translate(-38.19 -32.31)"/><path class="cls-8" d="M87.3,34.93q0.12,2.64.36,5.3a34.53,34.53,0,0,1,5.72-3.79h0c-2-.57-4.06-1.06-6.08-1.51M75.09,33.06q-1.42-.12-2.83-0.2c-8,.23-12.42,5.14-12.42,13.28,0,7,5,10.34,11.08,13.47A66.94,66.94,0,0,1,84.6,42.79C83.17,38,79.9,34,75.09,33.06m-34,3.38a102,102,0,0,1,16-3.16,19.24,19.24,0,0,0-7.21,9.57,43.89,43.89,0,0,0-8.84-6.41" transform="translate(-38.19 -32.31)"/></svg>