<svg id="Layer_1" data-name="Layer 1" xmlns="http://www.w3.org/2000/svg" xmlns:xlink="http://www.w3.org/1999/xlink" viewBox="0 0 341.43 103.44"><defs><style>.cls-1{fill:none;}.cls-2{font-size:40.07px;font-family:Cooper Hewitt;}.cls-2,.cls-3{fill:#fff;}.cls-4{clip-path:url(#clip-path);}.cls-5{fill:#b66f7d;}.cls-6{fill:#ed974c;}.cls-7{fill:#ede251;}.cls-8{fill:#5eb5e2;}.cls-9{isolation:isolate;font-size:43.09px;font-family:Arial;}</style><clipPath id="clip-path" transform="translate(-34.44 -34.47)"><rect class="cls-1" x="34.47" y="35.3" width="87.14" height="102.61"/></clipPath></defs><title>logo 2 w</title><text class="cls-2" transform="translate(107.81 45.32)">SingularityU</text><path class="cls-3" d="M62.89,35.92a108.13,108.13,0,0,1,16.19-1.45,122.91,122.91,0,0,1,29,3.94l5.74,19.52-0.14,46s-12.18,21.3-21.19,27.63l-47.85-55,4.43-32.16Z" transform="translate(-34.44 -34.47)"/><g class="cls-4"><path class="cls-5" d="M81.5,99.14a80.4,80.4,0,0,1-1.72,38.65c-0.58.06-1.17,0.1-1.76,0.12a9.86,9.86,0,0,1-1.71-.1c-4.44-15.66-4.09-29.71-1-41.93C77.4,97,79.5,98,81.5,99.14" transform="translate(-34.44 -34.47)"/></g><g class="cls-4"><path class="cls-6" d="M76.31,137.81c-4.44-15.66-4.09-29.7-1-41.93C63.06,89.56,50.14,82.46,50.14,62.35a36.52,36.52,0,0,1,1.94-12.08c-5.87-5.24-10.91-8.5-13.26-9.61a86.81,86.81,0,0,0,19.77,87.25c7.93,7.77,14.7,9.51,17.73,9.89" transform="translate(-34.44 -34.47)"/></g><path class="cls-7" d="M79.77,137.78c9.57-1,16.94-7.58,16.94-17.93,0-10.72-6.81-16.07-15.22-20.72a80.41,80.41,0,0,1-1.72,38.65M113.72,104C110.3,87.22,95.58,81.64,83.55,75.43A100.45,100.45,0,0,1,104.06,50.2a28.8,28.8,0,0,1,1.05,5.18l4.43-.79q-0.51-4.12-.89-8.24a51.79,51.79,0,0,1,8.58-5.69A86.58,86.58,0,0,1,113.72,104" transform="translate(-34.44 -34.47)"/><path class="cls-8" d="M108.12,38.41q0.18,4,.54,7.94a51.85,51.85,0,0,1,8.58-5.69h0c-3.06-.85-6.1-1.6-9.12-2.26M89.81,35.6q-2.12-.19-4.24-0.3c-12,.34-18.63,7.71-18.63,19.93,0,10.48,7.54,15.52,16.62,20.2A100.42,100.42,0,0,1,104.06,50.2C101.92,43.08,97,37.05,89.81,35.6m-51,5.07a153.12,153.12,0,0,1,24.07-4.74A28.89,28.89,0,0,0,52.08,50.28c-5.87-5.24-10.91-8.5-13.26-9.61" transform="translate(-34.44 -34.47)"/><text class="cls-9" transform="translate(329.46 45.3)"> </text></svg>